<svg version="1.1" xmlns="http://www.w3.org/2000/svg" viewBox="0 0 1008.6116943359375 470.3078511555988" width="1008.6116943359375" height="470.3078511555988" filter="invert(93%) hue-rotate(180deg)">
  <!-- svg-source:excalidraw -->
  
  <defs>
    <style class="style-fonts">
      @font-face {
        font-family: "Virgil";
        src: url("https://excalidraw.com/Virgil.woff2");
      }
      @font-face {
        font-family: "Cascadia";
        src: url("https://excalidraw.com/Cascadia.woff2");
      }
      @font-face {
        font-family: "Assistant";
        src: url("https://excalidraw.com/Assistant-Regular.woff2");
      }
    </style>
    
  </defs>
  <rect x="0" y="0" width="1008.6116943359375" height="470.3078511555988" fill="#ffffff"></rect><g stroke-linecap="round" transform="translate(10 157.64766438802073) rotate(0 153.6581420898437 150.7802734375)"><path d="M114.28 5.68 C128.42 -0.19, 147.73 -0.66, 163.72 0.29 C179.71 1.23, 195.71 5.55, 210.21 11.34 C224.7 17.12, 238.67 25.42, 250.68 34.99 C262.7 44.57, 273.58 56, 282.3 68.81 C291.01 81.62, 298.72 96.83, 302.96 111.85 C307.2 126.87, 308.7 143.42, 307.73 158.91 C306.77 174.41, 303.22 190.18, 297.19 204.82 C291.15 219.45, 281.62 234.44, 271.53 246.7 C261.44 258.96, 249.9 270.07, 236.64 278.38 C223.39 286.69, 207.37 292.79, 192 296.58 C176.63 300.36, 160.12 302.05, 144.41 301.11 C128.7 300.17, 112.38 296.45, 97.74 290.96 C83.1 285.47, 68.89 278.06, 56.59 268.17 C44.28 258.28, 32.55 244.87, 23.93 231.63 C15.32 218.4, 8.79 203.86, 4.89 188.74 C0.98 173.62, -0.3 156.53, 0.51 140.92 C1.32 125.31, 3.91 109.39, 9.74 95.08 C15.57 80.76, 25.3 67.06, 35.47 55.05 C45.65 43.04, 56.48 31.6, 70.81 23.03 C85.13 14.46, 112.11 6.54, 121.42 3.62 C130.73 0.69, 126.08 3.13, 126.66 5.49 M168.86 0.63 C183.66 -0.64, 199.2 5.62, 213.68 11.82 C228.16 18.01, 243.65 27.31, 255.74 37.8 C267.82 48.3, 278.34 61.24, 286.17 74.79 C294 88.34, 299.27 104.12, 302.72 119.11 C306.17 134.11, 308.18 149.62, 306.84 164.77 C305.5 179.93, 301.01 195.48, 294.69 210.04 C288.37 224.6, 279.3 240.17, 268.94 252.11 C258.57 264.06, 245.97 273.96, 232.5 281.72 C219.02 289.49, 203.89 295.58, 188.09 298.7 C172.28 301.83, 153.87 302.2, 137.66 300.49 C121.45 298.77, 105.07 294.34, 90.81 288.43 C76.56 282.52, 63.84 275.1, 52.13 265.04 C40.42 254.98, 28.61 241.84, 20.55 228.06 C12.49 214.29, 7.24 197.58, 3.79 182.4 C0.35 167.21, -1.46 152.45, -0.13 136.96 C1.2 121.46, 5.38 103.92, 11.75 89.43 C18.12 74.93, 27.35 61.55, 38.12 50 C48.88 38.46, 62.76 27.75, 76.31 20.15 C89.86 12.55, 104.07 7.54, 119.4 4.39 C134.74 1.23, 160.34 1.4, 168.33 1.21 C176.32 1.02, 167.42 0.7, 167.34 3.24" stroke="#1e1e1e" stroke-width="1" fill="none"></path></g><g stroke-linecap="round" transform="translate(691.29541015625 158.74730428059885) rotate(0 153.6581420898437 150.7802734375)"><path d="M193.83 6.18 C208.99 7.92, 225.77 16.61, 239.17 25.13 C252.56 33.65, 264.38 45.3, 274.21 57.27 C284.03 69.24, 292.65 82.45, 298.13 96.94 C303.61 111.43, 306.35 128.51, 307.08 144.21 C307.81 159.91, 306.79 176.16, 302.5 191.15 C298.22 206.14, 290.09 221.29, 281.39 234.13 C272.69 246.97, 262.64 258.66, 250.31 268.18 C237.98 277.69, 222.44 285.53, 207.41 291.23 C192.38 296.93, 175.87 301.59, 160.14 302.36 C144.42 303.14, 128.18 300.06, 113.07 295.89 C97.96 291.71, 82.81 285.77, 69.48 277.31 C56.16 268.85, 43.06 257.26, 33.1 245.16 C23.15 233.05, 15.42 219.3, 9.77 204.66 C4.12 190.03, 0.02 173.04, -0.77 157.34 C-1.57 141.65, 0.8 125.28, 5.02 110.48 C9.25 95.68, 15.86 81.52, 24.55 68.54 C33.25 55.57, 44.85 42.4, 57.22 32.62 C69.59 22.85, 83.68 15.14, 98.75 9.89 C113.83 4.65, 130.93 1.79, 147.65 1.15 C164.38 0.51, 189.64 4.29, 199.12 6.04 C208.6 7.79, 205.08 9.09, 204.54 11.65 M205.37 8.93 C220.38 11.93, 233.58 22.98, 246.3 32.34 C259.02 41.71, 272.36 52.35, 281.71 65.12 C291.06 77.89, 298.39 94.12, 302.43 108.96 C306.47 123.8, 306.45 138.78, 305.95 154.15 C305.44 169.51, 304.49 186.3, 299.42 201.15 C294.35 216, 285.57 230.74, 275.55 243.24 C265.53 255.74, 252.14 267.42, 239.3 276.15 C226.46 284.88, 213.67 291.49, 198.5 295.62 C183.34 299.75, 164.13 301.48, 148.33 300.93 C132.53 300.37, 118.48 297.25, 103.68 292.26 C88.89 287.27, 72.44 280.24, 59.56 270.97 C46.69 261.7, 35.42 249.63, 26.43 236.66 C17.43 223.7, 9.88 208.38, 5.59 193.18 C1.3 177.98, 0.24 161.1, 0.72 145.46 C1.19 129.81, 3.04 113.86, 8.45 99.31 C13.85 84.76, 23.58 70.41, 33.14 58.16 C42.69 45.91, 52.8 34.46, 65.77 25.79 C78.75 17.12, 95.75 10.41, 110.98 6.13 C126.21 1.85, 141.7 -0.31, 157.18 0.12 C172.65 0.56, 196.12 7.02, 203.82 8.75 C211.51 10.47, 203.91 8.05, 203.35 10.47" stroke="#1e1e1e" stroke-width="1" fill="none"></path></g><g transform="translate(119.09228515625 235.52315266927073) rotate(0 12.059989929199219 12.5)"><text x="0" y="17.52" font-family="Virgil, Segoe UI Emoji" font-size="20px" fill="#1e1e1e" text-anchor="start" style="white-space: pre;" direction="ltr" dominant-baseline="alphabetic">IP</text></g><g transform="translate(800.728759765625 243.2327168782551) rotate(0 12.059989929199219 12.5)"><text x="0" y="17.52" font-family="Virgil, Segoe UI Emoji" font-size="20px" fill="#1e1e1e" text-anchor="start" style="white-space: pre;" direction="ltr" dominant-baseline="alphabetic">IP</text></g><g stroke-linecap="round" transform="translate(149.73193359375 310.4937947591144) rotate(0 59.45150756835932 51.94223022460939)"><path d="M49.28 1.5 C58.45 -0.54, 71.24 1.1, 80.5 4.11 C89.75 7.13, 98.61 13, 104.82 19.61 C111.04 26.22, 116.1 35.41, 117.77 43.75 C119.43 52.1, 118.03 61.72, 114.81 69.69 C111.58 77.65, 105.89 86.12, 98.43 91.54 C90.97 96.97, 79.98 100.67, 70.06 102.23 C60.15 103.8, 48.25 103.68, 38.93 100.92 C29.61 98.17, 20.53 92.31, 14.16 85.71 C7.79 79.11, 2.46 69.96, 0.72 61.31 C-1.01 52.66, 0.25 41.9, 3.74 33.84 C7.24 25.77, 12.53 18.41, 21.69 12.92 C30.86 7.43, 50.81 2.8, 58.73 0.89 C66.65 -1.02, 69.29 0.79, 69.24 1.45 M87.5 5.31 C96.52 8.56, 105.57 18.52, 110.86 25.8 C116.16 33.07, 119.12 40.72, 119.27 48.96 C119.42 57.19, 116.44 67.19, 111.79 75.2 C107.14 83.21, 99.8 92.21, 91.37 97.03 C82.94 101.85, 71.09 104.14, 61.19 104.1 C51.29 104.07, 40.38 101.16, 31.94 96.82 C23.5 92.48, 15.73 85.38, 10.53 78.08 C5.34 70.79, 1.27 61.39, 0.76 53.05 C0.24 44.7, 3.13 35.4, 7.47 28.01 C11.81 20.63, 18.3 13.61, 26.78 8.73 C35.25 3.85, 48.02 -1, 58.33 -1.27 C68.64 -1.54, 83.71 5.78, 88.65 7.11 C93.59 8.44, 88.71 6.33, 87.98 6.7" stroke="#1e1e1e" stroke-width="1" fill="none"></path></g><g transform="translate(174.074907831513 349.7073217619497) rotate(0 35.069969177246094 12.5)"><text x="35.069969177246094" y="17.52" font-family="Virgil, Segoe UI Emoji" font-size="20px" fill="#1e1e1e" text-anchor="middle" style="white-space: pre;" direction="ltr" dominant-baseline="alphabetic">Port #</text></g><g stroke-linecap="round" transform="translate(831.368408203125 318.20335896809877) rotate(0 59.45150756835932 51.94223022460939)"><path d="M44.68 2.01 C53.72 -0.92, 65.47 0.18, 75.01 2.21 C84.55 4.24, 94.97 8.15, 101.92 14.2 C108.88 20.24, 114.11 29.94, 116.73 38.48 C119.35 47.02, 120.26 57.04, 117.67 65.43 C115.07 73.81, 108.12 82.77, 101.16 88.8 C94.21 94.82, 85.45 99.46, 75.94 101.56 C66.42 103.67, 53.86 103.41, 44.07 101.45 C34.28 99.49, 24.14 95.79, 17.19 89.78 C10.24 83.76, 4.84 73.75, 2.39 65.36 C-0.07 56.96, 0.04 47.68, 2.44 39.41 C4.85 31.14, 7.99 22.14, 16.82 15.74 C25.65 9.34, 47.21 3.43, 55.44 1.02 C63.67 -1.38, 66.2 0.6, 66.18 1.29 M34.05 3.44 C42.09 -0.32, 55.01 0.74, 65.19 1.53 C75.38 2.33, 87.37 3.39, 95.16 8.22 C102.95 13.04, 108.02 22.3, 111.94 30.51 C115.87 38.71, 119.36 48.74, 118.73 57.46 C118.09 66.19, 114.02 76.06, 108.15 82.85 C102.27 89.65, 92.38 94.72, 83.47 98.24 C74.55 101.76, 64.48 104.41, 54.64 103.99 C44.8 103.56, 32.36 100.73, 24.42 95.67 C16.48 90.6, 10.77 81.49, 6.99 73.61 C3.2 65.73, 1.29 57.06, 1.71 48.39 C2.13 39.72, 3.91 28.81, 9.51 21.57 C15.12 14.33, 31.11 7.46, 35.34 4.95 C39.56 2.44, 34.85 5.55, 34.88 6.51" stroke="#1e1e1e" stroke-width="1" fill="none"></path></g><g transform="translate(855.711382440888 357.41688597093406) rotate(0 35.069969177246094 12.5)"><text x="35.069969177246094" y="17.52" font-family="Virgil, Segoe UI Emoji" font-size="20px" fill="#1e1e1e" text-anchor="middle" style="white-space: pre;" direction="ltr" dominant-baseline="alphabetic">Port #</text></g><g stroke-linecap="round"><g transform="translate(299.69541940478575 204.19301124148615) rotate(0 203.60985266695758 1.0273859590988295)"><path d="M0.53 0.65 C68.46 1.26, 339.68 2.69, 407.51 2.85 M-0.65 -0.06 C67.16 0.29, 338.79 0.69, 406.72 1.14" stroke="#1e1e1e" stroke-width="1" fill="none"></path></g><g transform="translate(299.69541940478575 204.19301124148615) rotate(0 203.60985266695758 1.0273859590988295)"><path d="M383.19 9.6 C391.22 7.51, 398.35 5.05, 406.72 1.14 M383.19 9.6 C388.61 7.24, 395.81 4.77, 406.72 1.14" stroke="#1e1e1e" stroke-width="1" fill="none"></path></g><g transform="translate(299.69541940478575 204.19301124148615) rotate(0 203.60985266695758 1.0273859590988295)"><path d="M383.26 -7.5 C391.15 -4.59, 398.26 -2.04, 406.72 1.14 M383.26 -7.5 C388.51 -5.41, 395.69 -3.43, 406.72 1.14" stroke="#1e1e1e" stroke-width="1" fill="none"></path></g></g><mask></mask><g stroke-linecap="round"><g transform="translate(679.6092769148124 371.9561479175759) rotate(0 -178.0518263792975 1.1623144657747275)"><path d="M-0.17 -0.93 C-59.65 -0.67, -297.91 1.97, -357.08 2.57 M-1.71 1.2 C-60.82 1.6, -295.92 0.09, -354.88 0.57" stroke="#1e1e1e" stroke-width="1" fill="none"></path></g><g transform="translate(679.6092769148124 371.9561479175759) rotate(0 -178.0518263792975 1.1623144657747275)"><path d="M-331.39 -7.98 C-339.58 -7.2, -344.36 -1.6, -354.88 0.57 M-331.39 -7.98 C-338.7 -4.69, -346.79 -1.71, -354.88 0.57" stroke="#1e1e1e" stroke-width="1" fill="none"></path></g><g transform="translate(679.6092769148124 371.9561479175759) rotate(0 -178.0518263792975 1.1623144657747275)"><path d="M-331.39 9.12 C-339.73 5.01, -344.5 5.72, -354.88 0.57 M-331.39 9.12 C-338.56 6.86, -346.64 4.28, -354.88 0.57" stroke="#1e1e1e" stroke-width="1" fill="none"></path></g></g><mask></mask><g transform="translate(168.00842285156216 10) rotate(0 356.201904296875 22.5)"><text x="0" y="31.536" font-family="Virgil, Segoe UI Emoji" font-size="36px" fill="#1e1e1e" text-anchor="start" style="white-space: pre;" direction="ltr" dominant-baseline="alphabetic">Me and homie chatting using a chat app</text></g></svg>