<svg version="1.1" xmlns="http://www.w3.org/2000/svg" viewBox="0 0 655.4710845947266 362.7167968750002" width="655.4710845947266" height="362.7167968750002" filter="invert(93%) hue-rotate(180deg)">
  <!-- svg-source:excalidraw -->
  
  <defs>
    <style class="style-fonts">
      @font-face {
        font-family: "Virgil";
        src: url("https://excalidraw.com/Virgil.woff2");
      }
      @font-face {
        font-family: "Cascadia";
        src: url("https://excalidraw.com/Cascadia.woff2");
      }
      @font-face {
        font-family: "Assistant";
        src: url("https://excalidraw.com/Assistant-Regular.woff2");
      }
    </style>
    
  </defs>
  <rect x="0" y="0" width="655.4710845947266" height="362.7167968750002" fill="#ffffff"></rect><g stroke-linecap="round" transform="translate(18.52630615234375 10) rotate(0 65.38108825683594 54.06879425048828)"><path d="M42.16 2.73 C50.82 -0.63, 62.42 -0.05, 72.49 1.25 C82.55 2.55, 94.01 6.03, 102.56 10.53 C111.11 15.04, 119.09 20.86, 123.79 28.29 C128.48 35.73, 130.98 46.6, 130.72 55.14 C130.47 63.68, 127.02 72.23, 122.27 79.52 C117.51 86.81, 110.42 94.32, 102.19 98.87 C93.95 103.43, 82.83 105.96, 72.84 106.85 C62.84 107.74, 51.59 107.15, 42.2 104.19 C32.81 101.23, 23.09 95.3, 16.5 89.07 C9.9 82.85, 5.21 74.84, 2.62 66.85 C0.04 58.85, -1.38 49.18, 0.99 41.1 C3.36 33.03, 7.87 25.25, 16.84 18.37 C25.82 11.5, 46.33 2.82, 54.85 -0.13 C63.37 -3.08, 67.83 -0.38, 67.96 0.66 M52.89 0.04 C61.81 -2.2, 73.57 0.07, 83.17 2.56 C92.78 5.05, 103.4 9.05, 110.52 14.99 C117.64 20.92, 122.6 29.99, 125.91 38.16 C129.22 46.34, 131.75 56.07, 130.4 64.04 C129.05 72.02, 124.1 79.45, 117.81 86.02 C111.52 92.59, 101.73 99.77, 92.65 103.46 C83.57 107.15, 73.5 108.68, 63.33 108.16 C53.16 107.64, 40.7 104.52, 31.65 100.37 C22.6 96.21, 14.34 90.03, 9.03 83.25 C3.72 76.48, 0.33 68.33, -0.24 59.73 C-0.81 51.14, 1.38 39.83, 5.6 31.69 C9.82 23.55, 17.08 16.21, 25.08 10.9 C33.08 5.59, 48.91 1.18, 53.58 -0.15 C58.26 -1.49, 52.95 2.01, 53.14 2.87" stroke="#1e1e1e" stroke-width="2" fill="none"></path></g><g transform="translate(62.18600093643437 51.3363831853878) rotate(0 21.48998260498047 12.5)"><text x="21.48998260498047" y="17.52" font-family="Virgil, Segoe UI Emoji" font-size="20px" fill="#1e1e1e" text-anchor="middle" style="white-space: pre;" direction="ltr" dominant-baseline="alphabetic">John</text></g><g stroke-linecap="round" transform="translate(10 179.44110107421875) rotate(0 80.67587280273438 54.06879425048828)"><path d="M101.7 2.69 C112.83 3.93, 125.32 8.33, 134.24 13.49 C143.15 18.65, 150.72 26.6, 155.17 33.64 C159.63 40.68, 161.51 48.17, 160.97 55.73 C160.43 63.28, 157.33 71.91, 151.93 78.98 C146.53 86.05, 138 93.26, 128.58 98.12 C119.15 102.98, 107.15 106.69, 95.39 108.14 C83.64 109.6, 69.25 109.03, 58.04 106.88 C46.83 104.73, 36.81 100.54, 28.15 95.25 C19.49 89.95, 10.8 82.54, 6.07 75.11 C1.34 67.67, -0.91 58.58, -0.25 50.65 C0.41 42.72, 4.57 34.33, 10.02 27.53 C15.48 20.72, 23.16 14.23, 32.5 9.79 C41.84 5.35, 53.76 1.9, 66.07 0.87 C78.38 -0.15, 99.11 2.98, 106.38 3.65 C113.65 4.32, 109.92 4.22, 109.7 4.9 M65.21 1.63 C75.56 -0.25, 88.98 0.71, 100.27 2.64 C111.55 4.57, 123.89 8.03, 132.92 13.22 C141.94 18.41, 149.91 26.63, 154.43 33.75 C158.95 40.87, 160.34 48.43, 160.02 55.95 C159.7 63.47, 157.95 71.87, 152.51 78.86 C147.07 85.85, 136.76 93.38, 127.38 97.92 C118 102.45, 107.68 104.61, 96.22 106.08 C84.76 107.56, 70.05 108.38, 58.64 106.75 C47.24 105.11, 36.28 101.37, 27.79 96.27 C19.31 91.17, 12.2 83.4, 7.75 76.15 C3.3 68.9, 1.07 60.83, 1.09 52.78 C1.11 44.73, 2.36 35.05, 7.88 27.86 C13.4 20.67, 24.63 14.25, 34.22 9.65 C43.8 5.06, 59.92 1.66, 65.4 0.28 C70.88 -1.11, 66.63 0.37, 67.09 1.33" stroke="#1e1e1e" stroke-width="2" fill="none"></path></g><g transform="translate(41.79946764048458 220.77748425960655) rotate(0 48.82994842529297 12.5)"><text x="48.82994842529297" y="17.52" font-family="Virgil, Segoe UI Emoji" font-size="20px" fill="#1e1e1e" text-anchor="middle" style="white-space: pre;" direction="ltr" dominant-baseline="alphabetic">google.com</text></g><g stroke-linecap="round" transform="translate(302.4626770019531 14.575302124023438) rotate(0 65.38108825683594 54.06879425048828)"><path d="M94.66 6.19 C103.6 9.14, 112.31 15.69, 118.34 22.41 C124.38 29.13, 129.54 37.94, 130.85 46.5 C132.16 55.07, 130 65.96, 126.19 73.78 C122.38 81.61, 115.46 88.11, 107.99 93.46 C100.52 98.81, 91 103.54, 81.37 105.87 C71.73 108.21, 60.13 109.23, 50.17 107.48 C40.22 105.74, 29.19 101.1, 21.64 95.39 C14.09 89.67, 8.56 81.05, 4.87 73.19 C1.18 65.34, -1.5 56.71, -0.49 48.26 C0.52 39.81, 5.15 29.39, 10.93 22.47 C16.7 15.55, 25.21 10.55, 34.15 6.75 C43.08 2.95, 53.67 -0.61, 64.54 -0.34 C75.42 -0.07, 93.04 6.6, 99.37 8.36 C105.71 10.13, 103.01 9.58, 102.55 10.25 M79.25 -0.32 C88.64 0.48, 98.47 7.5, 105.99 12.95 C113.5 18.39, 120.31 24.88, 124.35 32.33 C128.39 39.78, 130.98 49.32, 130.24 57.63 C129.5 65.93, 125.11 75.05, 119.91 82.16 C114.71 89.27, 107.85 95.83, 99.04 100.29 C90.22 104.76, 77.42 108.54, 67.01 108.93 C56.61 109.32, 45.41 106.42, 36.61 102.63 C27.8 98.84, 20.14 92.87, 14.19 86.2 C8.24 79.52, 2.73 70.57, 0.91 62.58 C-0.91 54.58, 0.05 45.99, 3.28 38.23 C6.51 30.47, 13.11 21.87, 20.29 16.02 C27.47 10.17, 36.74 5.62, 46.37 3.1 C56 0.59, 72.85 1.31, 78.07 0.93 C83.29 0.55, 77.67 -0.26, 77.69 0.82" stroke="#1e1e1e" stroke-width="2" fill="none"></path></g><g transform="translate(341.6523705653406 43.41168530941124) rotate(0 25.959983825683594 25)"><text x="25.959983825683594" y="17.52" font-family="Virgil, Segoe UI Emoji" font-size="20px" fill="#1e1e1e" text-anchor="middle" style="white-space: pre;" direction="ltr" dominant-baseline="alphabetic">867-</text><text x="25.959983825683594" y="42.519999999999996" font-family="Virgil, Segoe UI Emoji" font-size="20px" fill="#1e1e1e" text-anchor="middle" style="white-space: pre;" direction="ltr" dominant-baseline="alphabetic">5309</text></g><g stroke-linecap="round" transform="translate(324.60748291015625 184.0164031982422) rotate(0 65.38108825683594 54.06879425048828)"><path d="M62.04 0.12 C71.74 -1.13, 83.6 2.24, 92.71 5.55 C101.83 8.86, 110.52 13.64, 116.75 20 C122.97 26.36, 128.13 35.29, 130.07 43.72 C132.01 52.16, 131.4 62.35, 128.38 70.61 C125.36 78.88, 119.4 87.35, 111.94 93.33 C104.48 99.31, 93.24 104.09, 83.59 106.49 C73.94 108.9, 63.87 109.45, 54.02 107.77 C44.17 106.09, 32.61 101.84, 24.49 96.41 C16.37 90.98, 9.31 82.96, 5.3 75.19 C1.28 67.42, -0.14 58.06, 0.42 49.77 C0.98 41.48, 3.48 32.45, 8.64 25.44 C13.81 18.43, 21.83 11.82, 31.39 7.7 C40.94 3.59, 59.52 1.83, 65.97 0.74 C72.41 -0.34, 69.89 0.44, 70.08 1.18 M52.76 1.63 C61.72 -0.33, 73.49 0.8, 83.19 3.15 C92.89 5.51, 103.58 9.78, 110.97 15.75 C118.35 21.72, 124.58 31.05, 127.5 38.99 C130.42 46.93, 130.14 55.42, 128.49 63.37 C126.84 71.32, 123.78 79.99, 117.59 86.7 C111.4 93.4, 100.56 100.22, 91.35 103.59 C82.15 106.97, 72.46 107.39, 62.35 106.95 C52.25 106.51, 39.56 104.86, 30.72 100.95 C21.89 97.05, 14.29 90.67, 9.36 83.52 C4.43 76.38, 1.61 66.54, 1.16 58.11 C0.7 49.67, 2.95 40.79, 6.64 32.9 C10.33 25.01, 15.29 16.23, 23.29 10.75 C31.3 5.27, 49.69 1.6, 54.68 0.03 C59.66 -1.54, 53.05 0.41, 53.2 1.34" stroke="#1e1e1e" stroke-width="2" fill="none"></path></g><g transform="translate(359.05718623916874 225.35278638363) rotate(0 30.699974060058565 12.5)"><text x="30.699974060058594" y="17.52" font-family="Virgil, Segoe UI Emoji" font-size="20px" fill="#1e1e1e" text-anchor="middle" style="white-space: pre;" direction="ltr" dominant-baseline="alphabetic">x.x.x.x</text></g><g stroke-linecap="round"><g transform="translate(157.9764404296875 69.54145812988281) rotate(0 68.38116455078125 0.5472412109375)"><path d="M0.2 -0.92 C23.33 -0.9, 115.08 0.36, 137.85 0.51 M-1.15 1.21 C21.99 1.35, 114.6 1.83, 137.47 1.74" stroke="#1e1e1e" stroke-width="2" fill="none"></path></g><g transform="translate(157.9764404296875 69.54145812988281) rotate(0 68.38116455078125 0.5472412109375)"><path d="M113.97 10.26 C117.68 10.12, 123.53 6.47, 137.47 1.74 M113.97 10.26 C119 8.51, 124.12 6.7, 137.47 1.74" stroke="#1e1e1e" stroke-width="2" fill="none"></path></g><g transform="translate(157.9764404296875 69.54145812988281) rotate(0 68.38116455078125 0.5472412109375)"><path d="M113.99 -6.84 C117.76 -3.14, 123.6 -2.95, 137.47 1.74 M113.99 -6.84 C119.14 -5.05, 124.24 -3.33, 137.47 1.74" stroke="#1e1e1e" stroke-width="2" fill="none"></path></g></g><mask></mask><g stroke-linecap="round"><g transform="translate(179.9700583690519 239.0679755429242) rotate(0 68.45741284064448 0.5196108547992253)"><path d="M-0.13 -0.8 C22.72 -0.46, 114.91 1.05, 137.76 1.4 M-1.66 1.4 C21.05 1.41, 114.27 -0.75, 137.25 -0.53" stroke="#1e1e1e" stroke-width="2" fill="none"></path></g><g transform="translate(179.9700583690519 239.0679755429242) rotate(0 68.45741284064448 0.5196108547992253)"><path d="M113.84 8.23 C120.85 6.56, 131.09 2.12, 137.25 -0.53 M113.84 8.23 C120.4 5.8, 128.02 3.32, 137.25 -0.53" stroke="#1e1e1e" stroke-width="2" fill="none"></path></g><g transform="translate(179.9700583690519 239.0679755429242) rotate(0 68.45741284064448 0.5196108547992253)"><path d="M113.69 -8.87 C120.67 -4.48, 130.96 -2.86, 137.25 -0.53 M113.69 -8.87 C120.41 -5.79, 128.09 -2.75, 137.25 -0.53" stroke="#1e1e1e" stroke-width="2" fill="none"></path></g></g><mask></mask><g transform="translate(258.7342325846354 327.7167968750002) rotate(0 123.78990936279297 12.5)"><text x="0" y="17.52" font-family="Virgil, Segoe UI Emoji" font-size="20px" fill="#e03131" text-anchor="start" style="white-space: pre;" direction="ltr" dominant-baseline="alphabetic">each x is in range 0-255</text></g><g transform="translate(352.1240692138672 250.67660776774105) rotate(0 10.352935791015625 3.276796340942383)" stroke="none"><path fill="#e03131" d="M 2.51,-0.29 Q 2.51,-0.29 2.63,0.31 2.75,0.92 3.24,1.92 3.74,2.92 5.05,2.78 6.36,2.65 7.56,2.57 8.75,2.49 9.89,2.46 11.03,2.43 12.10,2.40 13.17,2.38 14.45,2.40 15.73,2.42 17.06,2.46 18.38,2.50 17.75,3.75 17.12,5.00 17.00,3.95 16.88,2.91 16.86,2.31 16.84,1.71 17.01,1.14 17.18,0.57 17.52,0.08 17.86,-0.40 18.35,-0.75 18.83,-1.10 19.40,-1.28 19.97,-1.46 20.56,-1.45 21.16,-1.44 21.72,-1.24 22.29,-1.04 22.76,-0.67 23.22,-0.30 23.55,0.19 23.88,0.69 24.03,1.27 24.17,1.85 24.13,2.45 24.09,3.04 23.86,3.59 23.62,4.14 23.23,4.59 22.83,5.04 22.32,5.34 21.80,5.64 21.21,5.75 20.63,5.87 20.04,5.79 19.44,5.72 18.91,5.46 18.37,5.20 17.94,4.78 17.52,4.36 17.25,3.83 16.98,3.29 16.89,2.70 16.81,2.11 16.91,1.52 17.02,0.94 17.31,0.41 17.60,-0.10 18.04,-0.50 18.48,-0.90 19.03,-1.14 19.58,-1.38 20.17,-1.44 20.77,-1.49 21.35,-1.35 21.93,-1.21 22.43,-0.90 22.94,-0.58 23.32,-0.12 23.70,0.34 23.91,0.90 24.12,1.45 24.12,1.45 24.12,1.45 24.24,3.74 24.36,6.02 23.84,7.23 23.32,8.44 21.38,9.10 19.44,9.76 18.34,9.74 17.24,9.72 15.99,9.59 14.74,9.45 13.61,9.41 12.48,9.37 11.40,9.35 10.31,9.32 8.93,9.30 7.54,9.27 6.16,9.31 4.78,9.35 3.47,9.46 2.16,9.58 1.14,9.02 0.11,8.45 -0.58,7.17 -1.27,5.88 -1.67,4.80 -2.06,3.73 -2.26,2.63 -2.46,1.53 -2.49,0.91 -2.51,0.29 -2.51,-0.01 -2.51,-0.31 -2.43,-0.61 -2.36,-0.90 -2.22,-1.17 -2.07,-1.44 -1.87,-1.67 -1.67,-1.90 -1.41,-2.07 -1.16,-2.24 -0.88,-2.35 -0.59,-2.46 -0.29,-2.49 0.01,-2.53 0.31,-2.49 0.61,-2.45 0.90,-2.34 1.18,-2.23 1.43,-2.06 1.68,-1.88 1.89,-1.65 2.09,-1.42 2.23,-1.15 2.37,-0.88 2.44,-0.59 2.51,-0.29 2.51,-0.29 L 2.51,-0.29 Z"></path></g><g transform="translate(480.65673828125 189.12916056315123) rotate(0 14.779541015625 48.7735595703125)" stroke="none"><path fill="#1e1e1e" d="M 0,-2.49 Q 0,-2.49 1.53,-2.47 3.07,-2.46 4.39,-2.41 5.72,-2.37 6.85,-2.23 7.99,-2.10 9.69,-1.41 11.40,-0.73 12.68,-0.04 13.96,0.63 15.02,1.30 16.08,1.96 16.97,2.57 17.87,3.18 19.76,4.81 21.66,6.45 22.96,7.75 24.26,9.06 25.21,10.10 26.16,11.14 27.06,12.41 27.95,13.69 28.64,15.30 29.34,16.91 29.64,18.94 29.94,20.97 29.98,22.97 30.02,24.97 29.89,26.85 29.75,28.73 28.98,30.44 28.20,32.15 27.42,33.01 26.65,33.87 25.61,34.92 24.56,35.97 23.42,36.98 22.28,37.99 20.91,38.84 19.54,39.69 18.39,40.16 17.23,40.63 15.80,41.33 14.37,42.03 14.13,42.23 13.89,42.44 13.55,42.64 13.20,42.84 12.81,42.95 12.43,43.06 12.03,43.08 11.63,43.10 11.24,43.02 10.84,42.94 10.48,42.76 10.12,42.59 9.81,42.34 9.50,42.08 9.26,41.76 9.02,41.44 8.86,41.08 8.71,40.71 8.64,40.31 8.58,39.92 8.61,39.52 8.65,39.12 8.77,38.74 8.90,38.36 9.11,38.02 9.33,37.68 9.62,37.41 9.91,37.13 11.04,36.65 12.17,36.17 12.40,36.06 12.62,35.95 13.02,35.89 13.43,35.83 13.84,35.87 14.25,35.91 14.63,36.04 15.02,36.18 15.37,36.40 15.71,36.63 15.99,36.93 16.27,37.23 16.47,37.59 16.67,37.94 16.78,38.34 16.89,38.74 16.90,39.15 16.91,39.56 16.82,39.96 16.73,40.36 16.55,40.73 16.37,41.10 16.11,41.41 15.84,41.72 15.51,41.97 15.18,42.21 14.80,42.36 14.42,42.52 15.30,41.85 16.18,41.19 16.60,42.51 17.03,43.82 18.23,44.50 19.43,45.17 20.89,45.58 22.35,45.98 23.66,46.38 24.97,46.77 26.20,46.91 27.43,47.05 28.76,47.13 30.09,47.21 31.52,48.42 32.95,49.63 32.79,51.50 32.62,53.38 31.78,54.23 30.94,55.08 29.80,55.56 28.66,56.04 27.33,56.34 26.00,56.64 24.88,56.66 23.76,56.68 22.49,57.04 21.22,57.40 20.21,57.76 19.20,58.11 18.11,58.52 17.02,58.92 16.64,60.29 16.26,61.66 16.04,62.97 15.81,64.28 15.74,65.72 15.66,67.15 16.46,68.74 17.26,70.32 17.75,71.28 18.24,72.24 18.84,73.37 19.43,74.50 20.01,75.58 20.59,76.67 21.21,78.10 21.83,79.54 22.08,80.79 22.34,82.03 22.38,83.13 22.43,84.22 22.33,85.59 22.23,86.95 21.94,88.17 21.64,89.38 21.03,90.67 20.43,91.96 19.73,92.85 19.04,93.73 18.22,94.47 17.40,95.20 16.51,95.83 15.62,96.45 14.67,97.13 13.71,97.82 12.50,98.43 11.29,99.05 9.94,99.50 8.60,99.96 7.24,100.25 5.88,100.54 4.78,100.72 3.69,100.90 1.96,101.06 0.23,101.22 -0.35,101.14 -0.94,101.06 -1.48,100.80 -2.01,100.54 -2.44,100.12 -2.86,99.70 -3.13,99.17 -3.39,98.64 -3.48,98.05 -3.56,97.46 -3.45,96.88 -3.34,96.29 -3.05,95.77 -2.76,95.25 -2.32,94.85 -1.88,94.45 -1.34,94.22 -0.79,93.98 -0.20,93.93 0.38,93.87 0.96,94.01 1.54,94.16 2.04,94.47 2.55,94.79 2.92,95.25 3.30,95.71 3.51,96.27 3.72,96.83 3.73,97.42 3.75,98.02 3.58,98.59 3.41,99.16 3.07,99.64 2.72,100.13 2.24,100.48 1.76,100.83 1.19,101.01 0.62,101.18 0.03,101.17 -0.56,101.16 -1.12,100.96 -1.68,100.75 -2.14,100.38 -2.61,100.01 -2.93,99.51 -3.25,99.01 -3.40,98.44 -3.55,97.86 -3.50,97.27 -3.46,96.67 -3.23,96.13 -2.99,95.58 -2.60,95.13 -2.20,94.69 -1.69,94.39 -1.17,94.10 -0.59,93.98 -0.00,93.87 -0.00,93.87 -0.00,93.87 2.23,93.59 4.47,93.32 5.90,92.96 7.33,92.60 8.75,91.90 10.16,91.21 11.07,90.56 11.98,89.91 12.96,89.15 13.95,88.39 14.43,87.21 14.92,86.03 14.97,84.60 15.02,83.18 14.71,82.00 14.40,80.82 13.88,79.75 13.35,78.69 12.75,77.55 12.15,76.42 11.48,75.11 10.81,73.81 9.99,72.26 9.18,70.70 8.78,69.44 8.39,68.17 8.38,66.55 8.38,64.94 8.50,63.59 8.63,62.24 8.83,61.15 9.02,60.05 9.31,58.87 9.59,57.68 9.96,56.61 10.32,55.53 11.29,54.34 12.25,53.15 13.25,52.56 14.25,51.97 15.49,51.47 16.73,50.98 18.03,50.48 19.33,49.98 20.35,49.63 21.37,49.28 22.57,49.18 23.76,49.08 24.98,49.11 26.20,49.14 27.22,48.66 28.24,48.19 27.31,49.01 26.39,49.83 26.23,51.12 26.08,52.42 27.01,53.42 27.94,54.43 26.52,54.35 25.10,54.26 23.59,53.91 22.07,53.57 20.75,53.17 19.43,52.77 18.34,52.48 17.24,52.18 16.15,51.93 15.06,51.69 13.95,51.03 12.84,50.38 12.05,49.34 11.25,48.31 10.78,47.27 10.31,46.23 10.13,45.03 9.95,43.83 9.97,42.70 9.99,41.58 10.03,40.49 10.08,39.40 10.45,38.36 10.83,37.32 11.72,36.64 12.62,35.95 13.02,35.89 13.43,35.83 13.84,35.87 14.25,35.91 14.63,36.04 15.02,36.18 15.37,36.40 15.71,36.63 15.99,36.93 16.27,37.23 16.47,37.59 16.67,37.94 16.78,38.34 16.89,38.74 16.90,39.15 16.91,39.56 16.82,39.96 16.73,40.36 16.55,40.73 16.37,41.10 16.11,41.41 15.84,41.72 15.51,41.97 15.18,42.21 14.80,42.36 14.42,42.52 14.16,42.48 13.89,42.44 13.55,42.64 13.20,42.84 12.81,42.95 12.43,43.06 12.03,43.08 11.63,43.10 11.24,43.02 10.85,42.94 10.48,42.76 10.12,42.59 9.81,42.34 9.50,42.08 9.26,41.76 9.02,41.44 8.86,41.08 8.71,40.71 8.64,40.31 8.58,39.92 8.61,39.52 8.65,39.12 8.77,38.74 8.90,38.36 9.11,38.02 9.33,37.68 9.62,37.41 9.91,37.13 10.17,36.94 10.44,36.75 11.51,36.17 12.58,35.59 13.62,35.08 14.66,34.56 16.41,33.68 18.16,32.80 19.07,32.05 19.97,31.29 20.94,30.37 21.91,29.45 22.69,28.59 23.47,27.73 23.59,26.38 23.72,25.04 23.69,23.23 23.65,21.42 23.54,20.15 23.42,18.87 23.07,17.84 22.73,16.81 22.15,15.82 21.58,14.84 20.81,13.82 20.03,12.81 19.01,11.61 17.98,10.41 16.37,8.96 14.75,7.50 13.12,6.30 11.49,5.10 10.49,4.52 9.50,3.95 7.47,3.29 5.45,2.63 4.26,2.54 3.07,2.46 1.53,2.47 0,2.49 -0.29,2.46 -0.59,2.42 -0.87,2.31 -1.16,2.21 -1.40,2.04 -1.65,1.86 -1.85,1.64 -2.05,1.41 -2.19,1.15 -2.33,0.88 -2.40,0.59 -2.47,0.30 -2.47,-0.00 -2.47,-0.30 -2.40,-0.59 -2.33,-0.88 -2.19,-1.15 -2.05,-1.41 -1.85,-1.64 -1.65,-1.86 -1.40,-2.04 -1.16,-2.21 -0.87,-2.31 -0.59,-2.42 -0.29,-2.46 0.00,-2.49 0.00,-2.49 L 0,-2.49 Z"></path></g><g transform="translate(534.211181640625 228.61820475260436) rotate(0 55.62995147705078 12.5)"><text x="0" y="17.52" font-family="Virgil, Segoe UI Emoji" font-size="20px" fill="#1e1e1e" text-anchor="start" style="white-space: pre;" direction="ltr" dominant-baseline="alphabetic">IP Address</text></g></svg>