<svg version="1.1" xmlns="http://www.w3.org/2000/svg" viewBox="0 0 717.8774414062498 681.307902018229" width="717.8774414062498" height="681.307902018229" filter="invert(93%) hue-rotate(180deg)">
  <!-- svg-source:excalidraw -->
  
  <defs>
    <style class="style-fonts">
      @font-face {
        font-family: "Virgil";
        src: url("https://excalidraw.com/Virgil.woff2");
      }
      @font-face {
        font-family: "Cascadia";
        src: url("https://excalidraw.com/Cascadia.woff2");
      }
      @font-face {
        font-family: "Assistant";
        src: url("https://excalidraw.com/Assistant-Regular.woff2");
      }
    </style>
    
  </defs>
  <rect x="0" y="0" width="717.8774414062498" height="681.307902018229" fill="#ffffff"></rect><g transform="translate(216.2703247070316 10) rotate(0 126.7559585571289 22.5)"><text x="0" y="31.536" font-family="Virgil, Segoe UI Emoji" font-size="36px" fill="#1e1e1e" text-anchor="start" style="white-space: pre;" direction="ltr" dominant-baseline="alphabetic">Mesh Topology</text></g><g stroke-linecap="round" transform="translate(10 378.9213053385416) rotate(0 41.83981323242182 39.79779052734375)"><path d="M62.27 5.19 C68.97 7.94, 75.63 14.41, 79.05 20.49 C82.46 26.56, 83.28 34.39, 82.78 41.63 C82.28 48.88, 80.39 58.16, 76.04 63.94 C71.69 69.72, 63.83 73.76, 56.67 76.33 C49.51 78.9, 40.45 80.67, 33.09 79.35 C25.74 78.04, 17.93 73.67, 12.56 68.43 C7.19 63.19, 2.57 55.01, 0.9 47.92 C-0.76 40.84, 0.12 32.55, 2.56 25.93 C5.01 19.31, 9.7 12.57, 15.56 8.2 C21.42 3.84, 29.02 -0.25, 37.74 -0.24 C46.46 -0.23, 62.27 6.11, 67.86 8.29 C73.45 10.46, 71.98 12.4, 71.26 12.81 M20.8 5.77 C27.2 1.89, 38.34 0.48, 45.85 0.78 C53.36 1.07, 59.75 3.19, 65.86 7.53 C71.97 11.87, 79.95 19.93, 82.53 26.8 C85.11 33.67, 83.13 42.07, 81.33 48.75 C79.54 55.44, 76.77 62.1, 71.77 66.9 C66.77 71.71, 58.6 76.06, 51.34 77.61 C44.08 79.15, 35.6 78.41, 28.21 76.19 C20.81 73.96, 11.49 69.66, 6.96 64.23 C2.43 58.81, 1.09 50.77, 1.02 43.62 C0.95 36.48, 2.98 27.85, 6.56 21.34 C10.14 14.84, 19.89 7.44, 22.49 4.57 C25.09 1.7, 21.76 3.36, 22.15 4.12" stroke="#1e1e1e" stroke-width="1" fill="none"></path></g><g stroke-linecap="round" transform="translate(624.1978149414061 392.5460917154947) rotate(0 41.83981323242182 39.79779052734375)"><path d="M25.33 3.39 C31.38 0.11, 40.49 -0.81, 47.94 0.26 C55.39 1.32, 64.19 4.95, 70.05 9.79 C75.91 14.63, 81.09 22.13, 83.13 29.28 C85.17 36.43, 84.86 45.83, 82.29 52.69 C79.71 59.56, 73.64 65.97, 67.68 70.46 C61.71 74.96, 53.81 78.78, 46.5 79.65 C39.18 80.52, 30.48 78.77, 23.8 75.67 C17.13 72.57, 10.28 67.18, 6.46 61.05 C2.64 54.93, 0.72 46.2, 0.89 38.92 C1.07 31.64, 2.97 23.46, 7.49 17.38 C12 11.29, 24.32 4.77, 27.99 2.42 C31.67 0.08, 29.37 2.79, 29.54 3.3 M27.35 3.93 C34.05 1.32, 43.18 0.59, 50.7 1.92 C58.22 3.24, 67.14 7.1, 72.47 11.9 C77.8 16.7, 81.43 23.77, 82.66 30.71 C83.89 37.64, 82.6 46.96, 79.87 53.5 C77.13 60.05, 72.19 65.77, 66.24 69.99 C60.29 74.21, 51.77 78.05, 44.16 78.82 C36.56 79.59, 27.17 78.09, 20.61 74.61 C14.06 71.13, 8.3 64.03, 4.81 57.95 C1.31 51.86, -1.03 44.99, -0.35 38.11 C0.33 31.22, 4.26 22.43, 8.86 16.65 C13.47 10.86, 24.22 5.83, 27.29 3.39 C30.36 0.95, 27.22 1.55, 27.29 2.01" stroke="#1e1e1e" stroke-width="1" fill="none"></path></g><g stroke-linecap="round" transform="translate(302.96978759765614 591.7123209635415) rotate(0 41.83981323242182 39.79779052734375)"><path d="M37.55 0.13 C44.47 -0.77, 53.66 1.85, 60.36 5.26 C67.05 8.66, 73.73 14.59, 77.71 20.55 C81.7 26.51, 84.58 33.99, 84.26 41.02 C83.94 48.05, 80.22 56.72, 75.8 62.74 C71.37 68.76, 64.66 74.38, 57.7 77.14 C50.75 79.9, 41.4 80.58, 34.06 79.31 C26.71 78.03, 19.08 74.46, 13.63 69.48 C8.19 64.49, 3.29 56.4, 1.41 49.38 C-0.48 42.36, -0.11 34.17, 2.32 27.34 C4.74 20.52, 8.57 12.93, 15.97 8.43 C23.37 3.94, 40.52 1.48, 46.7 0.37 C52.87 -0.75, 53.32 1.2, 53.01 1.72 M48.78 1.66 C55.81 2.02, 64.16 5.41, 69.63 9.67 C75.11 13.94, 79.55 20.5, 81.62 27.23 C83.7 33.95, 84.39 43.08, 82.09 50.01 C79.79 56.95, 73.63 64.23, 67.81 68.85 C62 73.47, 54.48 76.61, 47.22 77.73 C39.96 78.85, 31.22 78.37, 24.27 75.57 C17.32 72.77, 9.4 66.78, 5.5 60.94 C1.6 55.11, 0.59 47.62, 0.85 40.58 C1.11 33.54, 3 24.86, 7.06 18.71 C11.11 12.56, 18.61 6.87, 25.16 3.69 C31.71 0.52, 42.65 -0.11, 46.37 -0.32 C50.08 -0.53, 47.11 1.53, 47.44 2.43" stroke="#1e1e1e" stroke-width="1" fill="none"></path></g><g stroke-linecap="round" transform="translate(158.6885986328124 136.78626505533845) rotate(0 41.83981323242182 39.79779052734375)"><path d="M36.02 0.14 C43.12 -1.28, 52.57 1.04, 59.23 3.95 C65.89 6.86, 71.93 11.69, 75.98 17.6 C80.03 23.52, 83.22 32.24, 83.52 39.45 C83.83 46.67, 81.68 54.74, 77.8 60.89 C73.93 67.05, 67.01 73.29, 60.29 76.39 C53.56 79.49, 44.98 80.52, 37.46 79.51 C29.94 78.5, 21.01 74.97, 15.18 70.32 C9.35 65.68, 4.76 58.36, 2.46 51.64 C0.17 44.91, -0.51 36.98, 1.43 29.96 C3.36 22.94, 8.38 14.56, 14.09 9.51 C19.79 4.45, 31.83 1, 35.65 -0.37 C39.47 -1.74, 36.66 0.47, 37.01 1.28 M56.45 2.16 C62.94 3.96, 69.67 10.46, 74.04 16.01 C78.41 21.56, 82.06 28.42, 82.65 35.45 C83.24 42.48, 81.29 51.7, 77.59 58.2 C73.9 64.7, 66.99 71.1, 60.46 74.45 C53.93 77.81, 45.77 78.63, 38.41 78.31 C31.06 77.99, 22.19 76.54, 16.35 72.52 C10.5 68.5, 5.86 60.91, 3.35 54.18 C0.85 47.45, -0.18 39.44, 1.32 32.13 C2.81 24.82, 7.16 15.55, 12.31 10.32 C17.45 5.09, 24.65 1.86, 32.21 0.76 C39.77 -0.35, 53.57 3.31, 57.69 3.69 C61.8 4.07, 57.52 2.74, 56.9 3.04" stroke="#1e1e1e" stroke-width="1" fill="none"></path></g><g stroke-linecap="round" transform="translate(442.40008544921864 139.54078165690095) rotate(0 41.83981323242182 39.79779052734375)"><path d="M59.34 2.7 C66.17 4.8, 72.5 11.52, 76.61 17.68 C80.72 23.84, 83.85 32.38, 84 39.65 C84.14 46.92, 81.42 55.13, 77.48 61.29 C73.55 67.46, 67.21 73.62, 60.41 76.65 C53.6 79.68, 44.26 80.45, 36.67 79.47 C29.09 78.49, 20.69 75.46, 14.88 70.79 C9.08 66.12, 3.95 58.37, 1.85 51.45 C-0.26 44.53, 0.35 36.29, 2.27 29.27 C4.19 22.26, 7.97 14.25, 13.36 9.35 C18.75 4.44, 26.65 0.53, 34.61 -0.16 C42.57 -0.85, 56.45 4.06, 61.13 5.22 C65.81 6.39, 62.91 6.33, 62.69 6.83 M41.99 -0.92 C48.96 -1.42, 56.81 1.58, 63.03 5.38 C69.24 9.17, 75.95 15.26, 79.27 21.87 C82.6 28.49, 84.15 37.8, 82.98 45.06 C81.81 52.33, 76.99 59.86, 72.23 65.47 C67.47 71.08, 61.38 76.57, 54.41 78.71 C47.45 80.85, 37.69 80.47, 30.45 78.33 C23.2 76.19, 16.18 71.48, 10.95 65.88 C5.72 60.27, 0.29 51.59, -0.93 44.68 C-2.15 37.78, 0.09 30.73, 3.65 24.45 C7.22 18.18, 14.12 11.28, 20.46 7.03 C26.8 2.79, 38.25 -0.04, 41.69 -1.03 C45.14 -2.02, 40.98 0.23, 41.14 1.08" stroke="#1e1e1e" stroke-width="1" fill="none"></path></g><g stroke-linecap="round"><g transform="translate(184.59655761718727 214.4811503092447) rotate(0 -56.13317871093744 82.31814575195312)"><path d="M0.47 -0.13 C-18.29 27.46, -94.01 137.35, -112.99 164.68 M-0.74 -1.25 C-19.07 26.63, -92.26 138.57, -110.67 166.25" stroke="#1e1e1e" stroke-width="1" fill="none"></path></g></g><mask></mask><g stroke-linecap="round"><g transform="translate(248.16601562499977 171.18433634440095) rotate(0 94.893798828125 1.27587890625)"><path d="M0.57 0.48 C32.35 0.72, 158.88 1.55, 190.34 1.78 M-0.59 -0.32 C31.11 0.03, 158.19 2.39, 189.69 2.92" stroke="#1e1e1e" stroke-width="1" fill="none"></path></g></g><mask></mask><g stroke-linecap="round"><g transform="translate(511.0534667968748 214.46146647135407) rotate(0 71.02294921875 90.21958923339844)"><path d="M0.9 -0.81 C24.33 29.59, 117.57 151.54, 140.93 181.62 M-0.09 1.37 C23.66 31.54, 119.14 150.25, 143.05 180.12" stroke="#1e1e1e" stroke-width="1" fill="none"></path></g></g><mask></mask><g stroke-linecap="round"><g transform="translate(634.4384765624998 468.25001017252595) rotate(0 -121.88580322265625 76.02624511718744)"><path d="M0.55 -0.29 C-40.28 24.7, -203.27 125.77, -244.06 151.04 M-0.62 -1.49 C-41.72 24.13, -204.4 126.42, -245.16 152.05" stroke="#1e1e1e" stroke-width="1" fill="none"></path></g></g><mask></mask><g stroke-linecap="round"><g transform="translate(78.36865234374989 456.01734415690095) rotate(0 114.4522094726562 79.38467407226557)"><path d="M-0.17 -0.95 C38.18 25.5, 190.66 131.76, 229.02 158.3 M-1.71 1.16 C36.58 27.81, 189.54 133.22, 228.13 159.59" stroke="#1e1e1e" stroke-width="1" fill="none"></path></g></g><mask></mask><g stroke-linecap="round"><g transform="translate(208.72875976562477 217.88550821940095) rotate(0 63.51641845703125 183.68264770507807)"><path d="M-0.79 -1.14 C20.11 59.91, 105.19 304.96, 126.37 366.23 M0.99 0.88 C22.21 62.04, 107.44 306.1, 128.73 367.18" stroke="#1e1e1e" stroke-width="1" fill="none"></path></g></g><mask></mask><g stroke-linecap="round"><g transform="translate(470.8355712890623 221.04947916666657) rotate(0 -59.9537353515625 182.572036743164)"><path d="M-0.11 -0.52 C-20.24 60.48, -99.54 304.99, -119.7 366.02 M-1.63 1.82 C-21.99 62.49, -101.01 304.06, -120.54 364.35" stroke="#1e1e1e" stroke-width="1" fill="none"></path></g></g><mask></mask><g stroke-linecap="round"><g transform="translate(105.82220458984364 425.80884806315095) rotate(0 257.93032836914057 -2.184417724609375)"><path d="M-0.92 0.93 C85.33 0.05, 430.47 -3.52, 516.71 -4.33 M0.79 0.37 C87.03 -0.38, 430.33 -1.7, 516.21 -2.78" stroke="#1e1e1e" stroke-width="1" fill="none"></path></g></g><mask></mask><g stroke-linecap="round"><g transform="translate(225.47937011718727 212.01310221354157) rotate(0 198.05670166015625 103.32423400878906)"><path d="M-0.38 0.48 C65.96 34.81, 330.83 172.73, 396.89 207.05 M1.62 -0.32 C67.98 34.16, 330.76 170.5, 396.35 205.14" stroke="#1e1e1e" stroke-width="1" fill="none"></path></g></g><mask></mask><g stroke-linecap="round"><g transform="translate(453.0604248046873 208.5789286295572) rotate(0 -179.48178100585932 102.65109252929688)"><path d="M0.54 0.2 C-59.38 34.66, -299.55 171.52, -359.64 205.86 M-0.63 -0.74 C-60.16 33.44, -297.79 169.84, -357.28 204.03" stroke="#1e1e1e" stroke-width="1" fill="none"></path></g></g><mask></mask></svg>