<svg version="1.1" xmlns="http://www.w3.org/2000/svg" viewBox="0 0 880.1182861328125 612.2399800618489" width="880.1182861328125" height="612.2399800618489" filter="invert(93%) hue-rotate(180deg)">
  <!-- svg-source:excalidraw -->
  
  <defs>
    <style class="style-fonts">
      @font-face {
        font-family: "Virgil";
        src: url("https://excalidraw.com/Virgil.woff2");
      }
      @font-face {
        font-family: "Cascadia";
        src: url("https://excalidraw.com/Cascadia.woff2");
      }
      @font-face {
        font-family: "Assistant";
        src: url("https://excalidraw.com/Assistant-Regular.woff2");
      }
    </style>
    
  </defs>
  <rect x="0" y="0" width="880.1182861328125" height="612.2399800618489" fill="#ffffff"></rect><g stroke-linecap="round" transform="translate(208.13288370768237 10) rotate(0 65.61848449707031 55.08361053466797)"><path d="M76.41 1.37 C86.16 1.83, 97.21 5.57, 105.37 10.36 C113.53 15.15, 121.14 22.33, 125.34 30.13 C129.55 37.94, 131.01 48.39, 130.61 57.19 C130.22 66, 127.75 75.62, 122.95 82.96 C118.15 90.3, 110.33 96.79, 101.8 101.25 C93.27 105.71, 81.85 109.09, 71.77 109.73 C61.68 110.36, 50.75 108.43, 41.31 105.05 C31.86 101.66, 21.6 95.84, 15.09 89.42 C8.57 83, 4.26 74.62, 2.2 66.53 C0.15 58.44, 0.29 49.2, 2.75 40.88 C5.2 32.55, 9.89 23.03, 16.94 16.59 C23.99 10.16, 34.17 4.89, 45.07 2.25 C55.97 -0.39, 75.19 0.28, 82.34 0.76 C89.5 1.25, 88.34 4.07, 88 5.16 M43.65 3.13 C52.13 -0.41, 63.26 0.48, 73.34 1.58 C83.41 2.68, 95.46 5.11, 104.09 9.72 C112.72 14.33, 120.61 21.42, 125.1 29.25 C129.58 37.08, 131.32 48.04, 130.99 56.71 C130.66 65.39, 128.1 73.92, 123.12 81.33 C118.14 88.74, 109.68 96.5, 101.11 101.16 C92.53 105.81, 81.57 108.36, 71.64 109.25 C61.72 110.15, 50.75 109.73, 41.56 106.52 C32.36 103.3, 23.01 96.49, 16.48 89.96 C9.95 83.44, 4.88 75.49, 2.36 67.38 C-0.16 59.28, -1.12 49.78, 1.35 41.34 C3.82 32.9, 10.17 23.25, 17.19 16.76 C24.2 10.26, 39.19 4.44, 43.44 2.35 C47.7 0.26, 42.66 3.03, 42.71 4.22" stroke="#1e1e1e" stroke-width="1" fill="none"></path></g><g transform="translate(255.71210871483055 52.633615993365495) rotate(0 18.139984130859375 12.5)"><text x="18.139984130859375" y="17.52" font-family="Virgil, Segoe UI Emoji" font-size="20px" fill="#1e1e1e" text-anchor="middle" style="white-space: pre;" direction="ltr" dominant-baseline="alphabetic">ISP</text></g><g stroke-linecap="round" transform="translate(195.64884440104174 198.961181640625) rotate(0 65.61848449707031 55.08361053466797)"><path d="M59.29 -0.59 C68.92 -2.4, 81.87 0.14, 91.32 3.54 C100.77 6.94, 109.65 13.26, 115.97 19.83 C122.3 26.39, 127.14 34.71, 129.28 42.92 C131.42 51.14, 131.61 60.7, 128.84 69.14 C126.08 77.58, 119.6 87.2, 112.69 93.56 C105.78 99.92, 96.94 104.8, 87.36 107.31 C77.78 109.83, 65.24 109.94, 55.19 108.64 C45.15 107.34, 35.12 104.35, 27.08 99.52 C19.04 94.68, 11.4 87.27, 6.95 79.66 C2.49 72.05, 0.25 62.33, 0.35 53.86 C0.46 45.38, 2.73 36.18, 7.57 28.8 C12.4 21.42, 19.98 14.37, 29.35 9.57 C38.72 4.78, 57.39 1.37, 63.78 0.02 C70.16 -1.32, 67.66 0.61, 67.65 1.52 M61.04 1.16 C70.3 -0.54, 81.02 0.65, 90.37 3.97 C99.72 7.29, 110.41 14.66, 117.15 21.08 C123.89 27.51, 128.91 34.33, 130.8 42.52 C132.69 50.7, 131.51 61.88, 128.47 70.21 C125.44 78.54, 119.4 86.42, 112.57 92.48 C105.74 98.53, 96.98 103.46, 87.49 106.55 C78.01 109.64, 65.59 111.99, 55.66 111 C45.73 110.02, 36.07 106, 27.92 100.65 C19.76 95.3, 11.47 86.62, 6.71 78.9 C1.96 71.19, -0.82 62.85, -0.61 54.37 C-0.4 45.89, 2.6 35.41, 7.95 28.02 C13.31 20.62, 22.75 14.59, 31.53 10 C40.31 5.41, 56.02 2, 60.63 0.49 C65.24 -1.02, 58.99 0.15, 59.18 0.96" stroke="#1e1e1e" stroke-width="1" fill="none"></path></g><g transform="translate(222.00808344627586 229.0947976339905) rotate(0 39.35997009277344 25.000000000000014)"><text x="39.35997009277344" y="17.52" font-family="Virgil, Segoe UI Emoji" font-size="20px" fill="#1e1e1e" text-anchor="middle" style="white-space: pre;" direction="ltr" dominant-baseline="alphabetic">modem /</text><text x="39.35997009277344" y="42.519999999999996" font-family="Virgil, Segoe UI Emoji" font-size="20px" fill="#1e1e1e" text-anchor="middle" style="white-space: pre;" direction="ltr" dominant-baseline="alphabetic">router</text></g><g stroke-linecap="round" transform="translate(64.42447916666686 401.5989990234375) rotate(0 65.61848449707031 55.08361053466797)"><path d="M60.77 0.85 C70.51 -0.53, 82.29 1.3, 91.58 4.44 C100.87 7.58, 109.99 13.12, 116.5 19.7 C123.02 26.28, 128.54 35.61, 130.68 43.92 C132.82 52.23, 132.34 61.32, 129.33 69.55 C126.32 77.78, 119.55 86.99, 112.59 93.31 C105.64 99.63, 97.07 104.87, 87.61 107.47 C78.16 110.08, 66.15 110.21, 55.84 108.93 C45.54 107.64, 33.85 104.7, 25.79 99.78 C17.73 94.86, 11.93 87.08, 7.47 79.4 C3.02 71.73, -1.01 62.28, -0.93 53.72 C-0.85 45.16, 2.72 35.41, 7.96 28.06 C13.2 20.72, 20.44 14.33, 30.51 9.65 C40.57 4.97, 60.88 1.25, 68.34 -0.01 C75.8 -1.27, 75.58 1.02, 75.26 2.09 M84.66 2.82 C94.1 4.82, 102.94 11.44, 110.41 17.16 C117.88 22.88, 126.13 29.43, 129.49 37.13 C132.84 44.83, 132.32 54.7, 130.53 63.36 C128.74 72.03, 125.19 82.21, 118.76 89.13 C112.32 96.05, 101.14 101.62, 91.93 104.9 C82.71 108.18, 73.62 109.35, 63.47 108.82 C53.32 108.28, 39.84 105.75, 31.03 101.71 C22.22 97.67, 15.98 91.8, 10.63 84.58 C5.28 77.37, -0.11 67.12, -1.07 58.4 C-2.03 49.69, 0.53 39.79, 4.87 32.29 C9.2 24.8, 17.03 18.83, 24.94 13.43 C32.85 8.02, 42.54 1.5, 52.32 -0.15 C62.1 -1.79, 78.37 2.74, 83.64 3.57 C88.9 4.39, 84.07 4.15, 83.89 4.79" stroke="#1e1e1e" stroke-width="1" fill="none"></path></g><g transform="translate(121.74369440819004 444.232615016803) rotate(0 8.399993896484375 12.5)"><text x="8.399993896484375" y="17.52" font-family="Virgil, Segoe UI Emoji" font-size="20px" fill="#1e1e1e" text-anchor="middle" style="white-space: pre;" direction="ltr" dominant-baseline="alphabetic">d1</text></g><g stroke-linecap="round" transform="translate(229.52482096354174 405.2149658203125) rotate(0 65.61848449707031 55.08361053466797)"><path d="M94.41 6.52 C103.65 9.53, 113.56 16.66, 119.65 23.47 C125.74 30.28, 129.64 38.88, 130.93 47.39 C132.22 55.9, 130.76 66.4, 127.4 74.52 C124.04 82.65, 118.17 90.56, 110.76 96.15 C103.35 101.74, 92.89 106.11, 82.95 108.08 C73 110.05, 61.26 109.97, 51.1 107.96 C40.94 105.96, 29.79 101.48, 21.99 96.03 C14.18 90.58, 7.79 83.12, 4.26 75.27 C0.73 67.42, -0.43 57.22, 0.81 48.93 C2.06 40.63, 6.21 32.41, 11.72 25.5 C17.23 18.6, 24.93 11.7, 33.89 7.49 C42.85 3.28, 54.41 0.22, 65.5 0.24 C76.58 0.26, 93.87 5.6, 100.39 7.62 C106.92 9.65, 105.19 11.41, 104.64 12.39 M43.01 4.75 C51.8 1, 64.23 -1.29, 74.09 -0.55 C83.95 0.2, 94.13 4.55, 102.17 9.22 C110.21 13.89, 117.54 19.75, 122.34 27.49 C127.14 35.22, 130.69 46.91, 130.96 55.61 C131.22 64.31, 128.53 72.5, 123.92 79.7 C119.31 86.9, 111.6 93.58, 103.29 98.8 C94.99 104.02, 84.08 109.91, 74.11 111 C64.14 112.1, 53.12 108.5, 43.47 105.35 C33.81 102.2, 23.04 98.1, 16.2 92.12 C9.35 86.15, 4.88 77.59, 2.4 69.5 C-0.09 61.42, -0.91 52.19, 1.27 43.63 C3.46 35.08, 8.65 24.65, 15.52 18.18 C22.4 11.7, 38.18 6.96, 42.52 4.78 C46.87 2.6, 41.58 4.57, 41.6 5.1" stroke="#1e1e1e" stroke-width="1" fill="none"></path></g><g transform="translate(282.4340401723501 447.848581813678) rotate(0 12.809989929199219 12.5)"><text x="12.809989929199219" y="17.52" font-family="Virgil, Segoe UI Emoji" font-size="20px" fill="#1e1e1e" text-anchor="middle" style="white-space: pre;" direction="ltr" dominant-baseline="alphabetic">d2</text></g><g stroke-linecap="round" transform="translate(396.68583170572924 409.1705322265625) rotate(0 65.61848449707031 55.08361053466797)"><path d="M35.32 5.02 C43.7 0.55, 56.73 -0.27, 66.95 0.07 C77.18 0.4, 87.83 2.91, 96.67 7.02 C105.5 11.13, 114.26 17.7, 119.94 24.71 C125.63 31.73, 129.64 40.83, 130.79 49.11 C131.93 57.39, 130.66 66.51, 126.81 74.38 C122.96 82.24, 115.35 90.73, 107.67 96.3 C100 101.86, 90.35 105.81, 80.75 107.78 C71.15 109.74, 60.07 110.11, 50.05 108.08 C40.02 106.05, 28.16 101.29, 20.6 95.61 C13.05 89.93, 8.09 82, 4.73 73.99 C1.36 65.98, -0.85 56.17, 0.42 47.55 C1.68 38.93, 5.72 29.4, 12.31 22.29 C18.9 15.17, 34.6 7.89, 39.98 4.85 C45.36 1.81, 44.21 3.19, 44.61 4.06 M91.53 3.81 C100.69 6.32, 110.58 14.72, 116.83 21.69 C123.09 28.67, 127.17 37.28, 129.06 45.65 C130.95 54.01, 131.14 63.82, 128.17 71.89 C125.2 79.96, 118.51 88.15, 111.22 94.06 C103.94 99.98, 94.05 104.78, 84.46 107.38 C74.87 109.99, 63.42 111.09, 53.67 109.68 C43.92 108.27, 34.02 104.02, 25.96 98.92 C17.9 93.83, 9.59 86.68, 5.3 79.11 C1.01 71.55, -0.23 62.31, 0.2 53.55 C0.63 44.79, 2.55 34.15, 7.87 26.55 C13.2 18.94, 23.44 12.43, 32.13 7.89 C40.82 3.36, 49.84 -0.25, 60.02 -0.65 C70.21 -1.06, 88 4.37, 93.22 5.45 C98.44 6.53, 91.87 4.93, 91.37 5.8" stroke="#1e1e1e" stroke-width="1" fill="none"></path></g><g transform="translate(449.90504847313133 451.804148219928) rotate(0 12.499992370605469 12.5)"><text x="12.499992370605469" y="17.52" font-family="Virgil, Segoe UI Emoji" font-size="20px" fill="#1e1e1e" text-anchor="middle" style="white-space: pre;" direction="ltr" dominant-baseline="alphabetic">d3</text></g><g stroke-linecap="round"><g transform="translate(270.61138475551877 123.56229895691939) rotate(0 -0.4502365887017845 36.77396917663063)"><path d="M0.22 0.1 C-0.16 12.51, -0.99 61.58, -1.2 73.96 M-1.13 -0.89 C-1.79 11.19, -2.18 59.82, -2.31 72.05" stroke="#1e1e1e" stroke-width="1" fill="none"></path></g><g transform="translate(270.61138475551877 123.56229895691939) rotate(0 -0.4502365887017845 36.77396917663063)"><path d="M-10.63 48.47 C-7.32 57.11, -3.57 66.53, -2.31 72.05 M-10.63 48.47 C-7.71 57.93, -5.24 65.01, -2.31 72.05" stroke="#1e1e1e" stroke-width="1" fill="none"></path></g><g transform="translate(270.61138475551877 123.56229895691939) rotate(0 -0.4502365887017845 36.77396917663063)"><path d="M6.47 48.64 C3.14 57.25, 0.23 66.59, -2.31 72.05 M6.47 48.64 C3.06 58.01, -0.79 65.02, -2.31 72.05" stroke="#1e1e1e" stroke-width="1" fill="none"></path></g></g><mask></mask><g stroke-linecap="round"><g transform="translate(224.76947021484364 301.1920369466146) rotate(0 -35.76791381835932 49.098724365234375)"><path d="M0.22 -0.3 C-11.82 16.33, -58.94 82.74, -71.03 99.08 M-1.13 -1.51 C-13.38 14.87, -60.26 80.7, -71.71 97.41" stroke="#1e1e1e" stroke-width="1" fill="none"></path></g><g transform="translate(224.76947021484364 301.1920369466146) rotate(0 -35.76791381835932 49.098724365234375)"><path d="M-65.22 73.27 C-68.47 83.77, -69.09 91.28, -71.71 97.41 M-65.22 73.27 C-66.16 79.48, -69.29 85.96, -71.71 97.41" stroke="#1e1e1e" stroke-width="1" fill="none"></path></g><g transform="translate(224.76947021484364 301.1920369466146) rotate(0 -35.76791381835932 49.098724365234375)"><path d="M-51.22 83.09 C-59.99 89.69, -66.2 93.29, -71.71 97.41 M-51.22 83.09 C-55.74 86.68, -62.52 90.59, -71.71 97.41" stroke="#1e1e1e" stroke-width="1" fill="none"></path></g></g><mask></mask><g stroke-linecap="round"><g transform="translate(274.82147216796864 310.4287312825521) rotate(0 5.884521484375 47.756103515625)"><path d="M0.72 0.74 C2.64 16.3, 9.71 78.56, 11.56 94.45 M-0.36 0.09 C1.38 16.27, 8.59 79.78, 10.51 95.42" stroke="#1e1e1e" stroke-width="1" fill="none"></path></g><g transform="translate(274.82147216796864 310.4287312825521) rotate(0 5.884521484375 47.756103515625)"><path d="M-0.72 73.09 C4.12 79.44, 4.51 86.7, 10.51 95.42 M-0.72 73.09 C2.09 81.45, 7.09 89.28, 10.51 95.42" stroke="#1e1e1e" stroke-width="1" fill="none"></path></g><g transform="translate(274.82147216796864 310.4287312825521) rotate(0 5.884521484375 47.756103515625)"><path d="M16.27 71.1 C15.98 78.16, 11.22 86.02, 10.51 95.42 M16.27 71.1 C13.21 80.08, 12.38 88.59, 10.51 95.42" stroke="#1e1e1e" stroke-width="1" fill="none"></path></g></g><mask></mask><g stroke-linecap="round"><g transform="translate(330.9715576171874 294.0738728841146) rotate(0 41.773468017578125 58.53900146484375)"><path d="M-1.13 -0.48 C12.94 19.07, 70.01 97.47, 84.28 116.89 M0.47 -1.77 C14.46 17.99, 69.76 98.56, 83.72 118.34" stroke="#1e1e1e" stroke-width="1" fill="none"></path></g><g transform="translate(330.9715576171874 294.0738728841146) rotate(0 41.773468017578125 58.53900146484375)"><path d="M63.29 103.92 C68.35 109.5, 74.74 114.02, 83.72 118.34 M63.29 103.92 C67.04 106.65, 71.42 110.03, 83.72 118.34" stroke="#1e1e1e" stroke-width="1" fill="none"></path></g><g transform="translate(330.9715576171874 294.0738728841146) rotate(0 41.773468017578125 58.53900146484375)"><path d="M77.33 94.16 C78.31 102.42, 80.64 109.77, 83.72 118.34 M77.33 94.16 C77.97 98.93, 79.29 104.43, 83.72 118.34" stroke="#1e1e1e" stroke-width="1" fill="none"></path></g></g><mask></mask><g transform="translate(637.0087890624999 205.19475301106775) rotate(0 88.2999267578125 12.5)"><text x="0" y="17.52" font-family="Virgil, Segoe UI Emoji" font-size="20px" fill="#2f9e44" text-anchor="start" style="white-space: pre;" direction="ltr" dominant-baseline="alphabetic">global IP address</text></g><g transform="translate(649.6636962890624 436.80058797200525) rotate(0 94.12992095947266 12.5)"><text x="0" y="17.52" font-family="Virgil, Segoe UI Emoji" font-size="20px" fill="#e03131" text-anchor="start" style="white-space: pre;" direction="ltr" dominant-baseline="alphabetic">local IP addresses</text></g><g transform="translate(179.17279052734364 386.86247762044275) rotate(0 9.829986572265625 12.5)"><text x="0" y="17.52" font-family="Virgil, Segoe UI Emoji" font-size="20px" fill="#e03131" text-anchor="start" style="white-space: pre;" direction="ltr" dominant-baseline="alphabetic">ip1</text></g><g transform="translate(332.74981689453114 384.625478108724) rotate(0 14.239982604980469 12.5)"><text x="0" y="17.52" font-family="Virgil, Segoe UI Emoji" font-size="20px" fill="#e03131" text-anchor="start" style="white-space: pre;" direction="ltr" dominant-baseline="alphabetic">ip2</text></g><g transform="translate(509.55242919921864 385.48662312825525) rotate(0 13.929985046386719 12.5)"><text x="0" y="17.52" font-family="Virgil, Segoe UI Emoji" font-size="20px" fill="#e03131" text-anchor="start" style="white-space: pre;" direction="ltr" dominant-baseline="alphabetic">ip3</text></g><g stroke-linecap="round" transform="translate(10 134.89250691731775) rotate(0 430.05914306640625 233.67373657226557)"><path d="M32 0 C268.76 -0.14, 504.26 -0.14, 828.12 0 M32 0 C329.15 -2.48, 626.19 -2.57, 828.12 0 M828.12 0 C849.86 1.42, 858.71 11.12, 860.12 32 M828.12 0 C848.3 1.59, 862.13 9.61, 860.12 32 M860.12 32 C860.2 173.56, 859.93 317.87, 860.12 435.35 M860.12 32 C860.56 116.69, 860.4 200.7, 860.12 435.35 M860.12 435.35 C858.94 455.6, 848.67 468.42, 828.12 467.35 M860.12 435.35 C860.93 455.64, 849.95 467.85, 828.12 467.35 M828.12 467.35 C572.53 466.56, 318.61 467.04, 32 467.35 M828.12 467.35 C625.66 468.09, 423.43 467.77, 32 467.35 M32 467.35 C12.45 467.43, -1.26 458.15, 0 435.35 M32 467.35 C8.74 467.21, 1.12 457.95, 0 435.35 M0 435.35 C0.45 339.58, 0.31 243.79, 0 32 M0 435.35 C1.86 299.42, 1.74 164.17, 0 32 M0 32 C1.65 9.21, 9.4 -1.35, 32 0 M0 32 C-0.69 9.97, 12.56 -1.55, 32 0" stroke="#2f9e44" stroke-width="1" fill="none"></path></g><g stroke-linecap="round" transform="translate(49.92034912109375 378.25887044270837) rotate(0 84.10192871093744 71.20877075195312)"><path d="M32 0 C62.61 0.05, 90.85 -1.91, 136.2 0 M32 0 C69.58 -0.38, 106.95 -0.86, 136.2 0 M136.2 0 C157.86 0.32, 166.57 10.07, 168.2 32 M136.2 0 C158.66 -1.08, 169.4 11.57, 168.2 32 M168.2 32 C170.35 59.34, 168.87 83.71, 168.2 110.42 M168.2 32 C168.42 51.41, 169 71.54, 168.2 110.42 M168.2 110.42 C170.01 130.5, 156.08 143.73, 136.2 142.42 M168.2 110.42 C170.47 132.1, 159.54 140.13, 136.2 142.42 M136.2 142.42 C105.08 142.51, 77.64 142.48, 32 142.42 M136.2 142.42 C107.67 141.17, 80.54 141.89, 32 142.42 M32 142.42 C9.67 143.2, -1.14 132.98, 0 110.42 M32 142.42 C10.04 142.28, 1.7 133.6, 0 110.42 M0 110.42 C-0.84 84.63, -1.68 59.03, 0 32 M0 110.42 C-0.15 93.94, -0.03 78.09, 0 32 M0 32 C-0.02 11.16, 9.02 -1.15, 32 0 M0 32 C0.21 8.82, 10.06 0.37, 32 0" stroke="#e03131" stroke-width="1" fill="none"></path></g><g stroke-linecap="round" transform="translate(216.64971923828125 382.75056966145837) rotate(0 84.10192871093744 71.20877075195312)"><path d="M32 0 C54.06 2.38, 81.83 -1.25, 136.2 0 M32 0 C53.46 -0.39, 75.58 -0.15, 136.2 0 M136.2 0 C157.02 -0.41, 166.46 12.02, 168.2 32 M136.2 0 C158.88 -0.36, 168.82 11.35, 168.2 32 M168.2 32 C166.65 58.13, 169.35 87.12, 168.2 110.42 M168.2 32 C168.6 47.14, 167.44 63.12, 168.2 110.42 M168.2 110.42 C168.08 132.73, 159.33 144.04, 136.2 142.42 M168.2 110.42 C168.54 134.04, 158.44 141.73, 136.2 142.42 M136.2 142.42 C115.3 144.16, 91.29 141.09, 32 142.42 M136.2 142.42 C96.92 140.98, 58.71 141.31, 32 142.42 M32 142.42 C9.92 140.62, -0.76 130.92, 0 110.42 M32 142.42 C11.77 140.64, 0.74 130.49, 0 110.42 M0 110.42 C-1.89 83.6, 0.08 52.34, 0 32 M0 110.42 C0.8 80.87, -0.98 50.99, 0 32 M0 32 C0.85 9.66, 12.4 -0.81, 32 0 M0 32 C1.66 11.23, 11.59 1.74, 32 0" stroke="#e03131" stroke-width="1" fill="none"></path></g><g stroke-linecap="round" transform="translate(387.05169677734375 382.1865437825521) rotate(0 84.10192871093744 71.20877075195312)"><path d="M32 0 C56.02 -2.19, 81.55 -0.98, 136.2 0 M32 0 C72.91 0.21, 111.19 -0.68, 136.2 0 M136.2 0 C156.07 0.56, 166.52 10.89, 168.2 32 M136.2 0 C159.83 2.09, 170.34 12.85, 168.2 32 M168.2 32 C166.87 50.32, 169.61 66.77, 168.2 110.42 M168.2 32 C168.2 50.37, 167.95 69.63, 168.2 110.42 M168.2 110.42 C166.57 131.39, 157.37 143.12, 136.2 142.42 M168.2 110.42 C170.25 132.38, 155.56 141.94, 136.2 142.42 M136.2 142.42 C113.93 142.1, 89.62 143.68, 32 142.42 M136.2 142.42 C105.48 143.75, 75.93 144.08, 32 142.42 M32 142.42 C10.21 141.42, 1.27 131.94, 0 110.42 M32 142.42 C9.5 142.39, -1.36 132.15, 0 110.42 M0 110.42 C2.23 85.6, 1.09 57.67, 0 32 M0 110.42 C-0.49 90.08, 0.59 67.61, 0 32 M0 32 C-1.17 10.16, 10.03 0.19, 32 0 M0 32 C-1.04 12.38, 8.86 0.83, 32 0" stroke="#e03131" stroke-width="1" fill="none"></path></g><g transform="translate(577.3127441406249 390.86946614583337) rotate(0 19.51702880859375 62.451995849609375)" stroke="none"><path fill="#e03131" d="M 0,-2.50 Q 0,-2.50 1.39,-2.50 2.79,-2.50 3.96,-2.53 5.13,-2.56 6.26,-2.58 7.39,-2.61 9.34,-2.46 11.30,-2.32 12.51,-1.88 13.73,-1.45 15.34,-0.45 16.94,0.55 18.07,1.21 19.20,1.87 20.22,2.47 21.25,3.07 22.27,3.67 23.29,4.27 24.36,4.96 25.42,5.66 26.40,6.39 27.37,7.11 28.82,8.28 30.28,9.44 31.38,10.32 32.47,11.19 33.51,12.25 34.55,13.31 35.22,14.53 35.88,15.75 36.12,17.08 36.35,18.42 36.32,19.93 36.29,21.44 35.67,22.98 35.04,24.52 33.82,25.81 32.60,27.10 31.24,28.18 29.88,29.27 29.03,30.11 28.17,30.94 27.28,32.06 26.40,33.17 25.55,34.62 24.71,36.08 23.98,37.68 23.24,39.28 22.81,40.68 22.38,42.08 21.81,43.60 21.23,45.13 20.94,46.26 20.65,47.39 22.46,47.75 24.26,48.10 26.29,48.79 28.31,49.49 30.01,50.32 31.70,51.16 32.71,51.67 33.72,52.19 34.90,52.29 36.08,52.38 37.36,52.36 38.64,52.34 38.74,52.33 38.84,52.33 39.26,52.38 39.68,52.43 40.08,52.59 40.48,52.74 40.82,52.98 41.17,53.22 41.45,53.54 41.73,53.85 41.93,54.23 42.13,54.61 42.23,55.02 42.33,55.43 42.33,55.85 42.32,56.28 42.22,56.69 42.12,57.10 41.92,57.47 41.73,57.85 41.44,58.16 41.16,58.48 40.81,58.72 40.46,58.96 40.07,59.11 39.67,59.26 39.25,59.31 38.83,59.36 37.52,59.91 36.22,60.47 34.74,60.79 33.26,61.11 31.83,61.37 30.40,61.62 28.87,62.22 27.34,62.82 25.96,63.37 24.58,63.92 22.35,65.04 20.13,66.15 19.19,66.72 18.26,67.30 17.49,68.04 16.73,68.78 16.48,70.11 16.23,71.44 16.25,72.59 16.26,73.75 17.10,75.24 17.93,76.73 19.02,78.45 20.11,80.17 21.23,81.94 22.35,83.70 23.49,85.31 24.63,86.91 25.58,87.90 26.53,88.88 27.47,89.58 28.41,90.28 29.48,91.14 30.55,91.99 31.55,93.15 32.55,94.31 33.46,95.85 34.38,97.38 35.01,99.03 35.65,100.68 36.10,102.36 36.56,104.04 36.71,105.31 36.85,106.58 36.90,108.04 36.95,109.50 36.98,110.85 37.00,112.21 36.96,113.66 36.92,115.11 36.62,116.36 36.32,117.62 35.78,118.90 35.23,120.19 34.52,121.42 33.82,122.65 32.83,123.82 31.84,125.00 30.48,125.97 29.11,126.94 27.64,127.33 26.17,127.72 24.46,127.87 22.75,128.02 21.43,128.05 20.11,128.08 18.56,128.07 17.01,128.06 15.15,128.03 13.30,128.00 11.79,128.00 10.27,128.00 8.84,128.16 7.40,128.31 6.99,128.27 6.58,128.22 6.19,128.07 5.81,127.92 5.47,127.69 5.13,127.46 4.86,127.15 4.59,126.84 4.39,126.47 4.20,126.11 4.10,125.71 4.01,125.31 4.01,124.90 4.01,124.49 4.10,124.09 4.20,123.69 4.39,123.32 4.59,122.96 4.86,122.65 5.13,122.34 5.47,122.11 5.81,121.87 6.19,121.73 6.58,121.58 6.99,121.53 7.40,121.48 8.28,121.73 9.17,121.98 9.59,122.34 10.01,122.70 10.29,123.18 10.58,123.65 10.69,124.19 10.81,124.73 10.75,125.28 10.68,125.83 10.45,126.33 10.21,126.83 9.83,127.23 9.45,127.63 8.96,127.88 8.47,128.14 7.93,128.23 7.38,128.31 6.83,128.22 6.29,128.13 5.80,127.87 5.32,127.61 4.94,127.21 4.56,126.80 4.33,126.30 4.10,125.80 4.04,125.25 3.99,124.70 4.11,124.16 4.23,123.62 4.52,123.15 4.80,122.68 5.23,122.32 5.65,121.96 6.16,121.76 6.68,121.56 7.23,121.53 7.78,121.51 8.31,121.66 8.85,121.81 9.30,122.12 9.76,122.43 10.09,122.87 10.42,123.31 10.60,123.84 10.77,124.36 10.77,124.92 10.76,125.47 10.58,125.99 10.41,126.51 10.07,126.95 9.73,127.39 9.27,127.70 8.81,128.01 8.28,128.15 7.75,128.30 7.20,128.26 6.65,128.23 7.02,128.27 7.40,128.31 6.99,128.27 6.58,128.22 6.19,128.07 5.81,127.92 5.47,127.69 5.13,127.46 4.86,127.15 4.59,126.84 4.39,126.48 4.20,126.11 4.10,125.71 4.01,125.31 4.01,124.90 4.01,124.49 4.10,124.09 4.20,123.69 4.39,123.32 4.58,122.96 4.86,122.65 5.13,122.34 5.47,122.11 5.81,121.87 6.19,121.73 6.58,121.58 6.99,121.53 7.40,121.48 8.84,121.33 10.27,121.18 11.79,121.18 13.30,121.18 15.15,121.14 17.00,121.11 18.52,121.10 20.04,121.08 21.21,121.06 22.37,121.05 23.94,120.94 25.50,120.84 26.39,120.20 27.27,119.56 28.02,118.41 28.76,117.25 29.26,116.05 29.75,114.84 29.88,113.53 30.01,112.21 30.04,110.87 30.06,109.53 30.07,108.26 30.08,106.99 29.93,105.67 29.77,104.34 29.30,102.95 28.82,101.55 28.09,100.02 27.35,98.48 26.38,97.35 25.42,96.21 24.41,95.41 23.39,94.60 22.09,93.41 20.78,92.22 19.53,90.62 18.28,89.03 17.63,88.13 16.98,87.24 15.81,85.51 14.64,83.79 13.46,82.07 12.29,80.35 11.70,79.42 11.11,78.50 10.62,77.47 10.13,76.44 9.82,74.25 9.52,72.06 9.59,70.99 9.67,69.91 10.04,68.51 10.41,67.12 11.21,65.81 12.00,64.49 13.45,63.24 14.90,61.98 15.85,61.35 16.81,60.73 18.29,59.67 19.78,58.62 21.64,57.69 23.50,56.76 24.63,56.32 25.76,55.89 27.28,55.32 28.80,54.75 29.86,54.49 30.91,54.23 32.34,53.99 33.76,53.74 35.18,53.39 36.59,53.05 37.72,52.69 38.84,52.33 39.26,52.38 39.68,52.43 40.08,52.59 40.48,52.74 40.82,52.98 41.17,53.22 41.45,53.54 41.73,53.85 41.93,54.23 42.13,54.60 42.23,55.02 42.33,55.43 42.33,55.85 42.32,56.28 42.22,56.69 42.12,57.10 41.92,57.47 41.73,57.85 41.44,58.16 41.16,58.48 40.81,58.72 40.46,58.96 40.07,59.11 39.67,59.26 39.25,59.31 38.83,59.36 37.72,59.33 36.61,59.30 35.19,59.19 33.76,59.08 32.32,58.69 30.89,58.30 29.69,57.65 28.49,57.01 27.23,56.38 25.98,55.75 24.29,55.23 22.61,54.71 20.80,54.27 18.99,53.83 17.96,53.52 16.94,53.20 15.84,52.33 14.74,51.46 14.28,50.35 13.83,49.24 13.89,47.82 13.96,46.39 14.27,45.13 14.59,43.88 15.08,42.67 15.58,41.46 16.05,40.01 16.53,38.56 17.21,36.74 17.89,34.92 18.34,33.93 18.79,32.94 19.79,31.13 20.78,29.31 21.69,28.17 22.59,27.03 23.51,26.11 24.44,25.19 25.70,24.10 26.97,23.02 28.18,22.01 29.40,21.01 29.66,19.92 29.92,18.83 29.62,17.65 29.32,16.47 28.49,15.62 27.65,14.76 26.49,13.72 25.33,12.68 23.87,11.44 22.41,10.20 21.46,9.56 20.51,8.92 19.48,8.29 18.46,7.67 17.49,7.06 16.51,6.45 15.39,5.79 14.27,5.13 12.23,4.11 10.19,3.09 8.79,2.85 7.39,2.61 6.26,2.58 5.13,2.56 3.96,2.53 2.79,2.50 1.39,2.50 0,2.50 -0.29,2.46 -0.59,2.43 -0.88,2.32 -1.16,2.21 -1.41,2.04 -1.65,1.87 -1.85,1.64 -2.05,1.42 -2.19,1.15 -2.34,0.88 -2.41,0.59 -2.48,0.30 -2.48,-0.00 -2.48,-0.30 -2.41,-0.59 -2.34,-0.88 -2.19,-1.15 -2.05,-1.42 -1.85,-1.64 -1.65,-1.87 -1.41,-2.04 -1.16,-2.21 -0.88,-2.32 -0.59,-2.43 -0.29,-2.46 0.00,-2.50 0.00,-2.50 L 0,-2.50 Z"></path></g></svg>