<svg version="1.1" xmlns="http://www.w3.org/2000/svg" viewBox="0 0 536.9631042480469 249.1269073486328" width="536.9631042480469" height="249.1269073486328" filter="invert(93%) hue-rotate(180deg)">
  <!-- svg-source:excalidraw -->
  
  <defs>
    <style class="style-fonts">
      @font-face {
        font-family: "Virgil";
        src: url("https://excalidraw.com/Virgil.woff2");
      }
      @font-face {
        font-family: "Cascadia";
        src: url("https://excalidraw.com/Cascadia.woff2");
      }
      @font-face {
        font-family: "Assistant";
        src: url("https://excalidraw.com/Assistant-Regular.woff2");
      }
    </style>
    
  </defs>
  <rect x="0" y="0" width="536.9631042480469" height="249.1269073486328" fill="#ffffff"></rect><g stroke-linecap="round" transform="translate(10 24.200485229492188) rotate(0 94.66986083984375 64.23970031738281)"><path d="M32 0 C69.87 1.16, 112.88 0.64, 157.34 0 M32 0 C70.81 -1.08, 111 0.35, 157.34 0 M157.34 0 C179.78 0.52, 190.92 12.4, 189.34 32 M157.34 0 C177.34 -0.83, 188.21 8.4, 189.34 32 M189.34 32 C190 45.15, 187.9 57.97, 189.34 96.48 M189.34 32 C189.69 56.95, 190.08 81.53, 189.34 96.48 M189.34 96.48 C189.04 115.82, 179.25 127.62, 157.34 128.48 M189.34 96.48 C188.32 118.49, 176.88 128.24, 157.34 128.48 M157.34 128.48 C129.68 128.08, 100.97 127.15, 32 128.48 M157.34 128.48 C130.73 127.57, 104.73 128.24, 32 128.48 M32 128.48 C11.57 126.56, -1.47 119.07, 0 96.48 M32 128.48 C12.21 128.37, -0.25 119.89, 0 96.48 M0 96.48 C0.56 78.41, -1.72 56.76, 0 32 M0 96.48 C-0.53 75.88, 1.12 55.4, 0 32 M0 32 C-0.92 11.05, 9.68 -0.89, 32 0 M0 32 C-1.03 9.4, 9.89 -0.42, 32 0" stroke="#1e1e1e" stroke-width="2" fill="none"></path></g><g transform="translate(59.061920166015625 80.42573547363281) rotate(0 48.82994842529297 12.5)"><text x="0" y="17.52" font-family="Virgil, Segoe UI Emoji" font-size="20px" fill="#1e1e1e" text-anchor="start" style="white-space: pre;" direction="ltr" dominant-baseline="alphabetic">google.com</text></g><g stroke-linecap="round" transform="translate(366.3595886230469 27.6922607421875) rotate(0 80.3017578125 66.6935806274414)"><path d="M72.25 0.82 C83.31 -1.19, 97.46 -0.29, 108.53 3.09 C119.59 6.46, 130.55 13.9, 138.67 21.05 C146.79 28.21, 153.6 37.11, 157.24 46.02 C160.88 54.94, 162.2 64.96, 160.53 74.53 C158.87 84.1, 153.59 95.33, 147.23 103.46 C140.86 111.59, 132.11 118.31, 122.36 123.32 C112.62 128.33, 100.51 132.52, 88.78 133.49 C77.04 134.46, 62.98 132.43, 51.93 129.13 C40.88 125.82, 30.35 120.39, 22.49 113.68 C14.64 106.97, 8.29 98.12, 4.8 88.86 C1.31 79.61, 0.2 67.98, 1.57 58.15 C2.94 48.33, 6.85 37.88, 13.03 29.92 C19.22 21.96, 26.59 15.28, 38.68 10.38 C50.76 5.48, 75.45 1.68, 85.54 0.51 C95.63 -0.65, 99.29 2.37, 99.22 3.38 M44.12 8.71 C53.27 3.37, 66.2 -0.47, 77.4 -0.74 C88.59 -1.01, 100.89 2.86, 111.31 7.08 C121.73 11.3, 132.22 17.51, 139.92 24.58 C147.62 31.65, 154.18 40.36, 157.52 49.48 C160.86 58.6, 161.97 69.84, 159.96 79.29 C157.95 88.75, 152.47 98.26, 145.45 106.21 C138.43 114.17, 128.21 122.73, 117.84 127.04 C107.47 131.36, 94.69 132.14, 83.22 132.1 C71.74 132.05, 59.57 130.35, 49.01 126.77 C38.45 123.19, 27.63 117.92, 19.86 110.63 C12.1 103.33, 5.49 92.43, 2.4 83.02 C-0.69 73.62, -0.93 63.69, 1.33 54.19 C3.59 44.7, 8.95 33.61, 15.94 26.04 C22.94 18.48, 38.43 11.9, 43.29 8.81 C48.15 5.72, 44.62 6.95, 45.1 7.51" stroke="#1e1e1e" stroke-width="2" fill="none"></path></g><g transform="translate(416.67946251446426 81.72635824635333) rotate(0 30.199966430664062 12.5)"><text x="30.199966430664062" y="17.52" font-family="Virgil, Segoe UI Emoji" font-size="20px" fill="#1e1e1e" text-anchor="middle" style="white-space: pre;" direction="ltr" dominant-baseline="alphabetic">server</text></g><g stroke-linecap="round"><g transform="translate(203.69271850585938 37.23034667968751) rotate(0 86.31975168013321 1.196576537078009)"><path d="M-1.05 1.16 C27.68 1.53, 143.28 2.94, 172.38 3.1 M0.6 0.73 C29.15 0.67, 142.51 0.93, 171.3 1.34" stroke="#1e1e1e" stroke-width="2" fill="none"></path></g><g transform="translate(203.69271850585938 37.23034667968751) rotate(0 86.31975168013321 1.196576537078009)"><path d="M147.74 9.72 C156.74 6.96, 163.1 6.45, 171.3 1.34 M147.74 9.72 C153.29 6.74, 161.05 4.85, 171.3 1.34" stroke="#1e1e1e" stroke-width="2" fill="none"></path></g><g transform="translate(203.69271850585938 37.23034667968751) rotate(0 86.31975168013321 1.196576537078009)"><path d="M147.87 -7.38 C156.96 -4.97, 163.28 -0.31, 171.3 1.34 M147.87 -7.38 C153.41 -5.69, 161.13 -2.9, 171.3 1.34" stroke="#1e1e1e" stroke-width="2" fill="none"></path></g></g><mask></mask><g stroke-linecap="round"><g transform="translate(356.62249755859375 115.17573547363281) rotate(0 -72.68478538238668 0.3228699307908869)"><path d="M-0.24 0.69 C-24.49 0.6, -120.86 -0.48, -145.23 -0.33 M-1.83 0.01 C-26.24 0.02, -122.38 0.74, -146.1 0.69" stroke="#1e1e1e" stroke-width="2" fill="none"></path></g><g transform="translate(356.62249755859375 115.17573547363281) rotate(0 -72.68478538238668 0.3228699307908869)"><path d="M-122.64 -7.94 C-129.02 -4.97, -139.36 -4.27, -146.1 0.69 M-122.64 -7.94 C-132.37 -4.79, -139.43 -1.43, -146.1 0.69" stroke="#1e1e1e" stroke-width="2" fill="none"></path></g><g transform="translate(356.62249755859375 115.17573547363281) rotate(0 -72.68478538238668 0.3228699307908869)"><path d="M-122.58 9.16 C-129.02 6.62, -139.38 1.82, -146.1 0.69 M-122.58 9.16 C-132.38 5.84, -139.47 2.73, -146.1 0.69" stroke="#1e1e1e" stroke-width="2" fill="none"></path></g></g><mask></mask><g transform="translate(241.71676635742188 10) rotate(0 37.4599609375 12.5)"><text x="0" y="17.52" font-family="Virgil, Segoe UI Emoji" font-size="20px" fill="#1e1e1e" text-anchor="start" style="white-space: pre;" direction="ltr" dominant-baseline="alphabetic">request</text></g><g transform="translate(247.50973510742188 133.0508270263672) rotate(0 41.239952087402344 12.5)"><text x="0" y="17.52" font-family="Virgil, Segoe UI Emoji" font-size="20px" fill="#1e1e1e" text-anchor="start" style="white-space: pre;" direction="ltr" dominant-baseline="alphabetic">response</text></g><g transform="translate(42.746002197265625 214.1269073486328) rotate(0 25.629974365234375 12.5)"><text x="0" y="17.52" font-family="Virgil, Segoe UI Emoji" font-size="20px" fill="#1e1e1e" text-anchor="start" style="white-space: pre;" direction="ltr" dominant-baseline="alphabetic">client</text></g><g transform="translate(427.44891357421875 211.55140686035156) rotate(0 30.199966430664062 12.5)"><text x="0" y="17.52" font-family="Virgil, Segoe UI Emoji" font-size="20px" fill="#1e1e1e" text-anchor="start" style="white-space: pre;" direction="ltr" dominant-baseline="alphabetic">server</text></g></svg>