<svg version="1.1" xmlns="http://www.w3.org/2000/svg" viewBox="0 0 882.6932220458978 752.141886393229" width="882.6932220458978" height="752.141886393229" filter="invert(93%) hue-rotate(180deg)">
  <!-- svg-source:excalidraw -->
  
  <defs>
    <style class="style-fonts">
      @font-face {
        font-family: "Virgil";
        src: url("https://excalidraw.com/Virgil.woff2");
      }
      @font-face {
        font-family: "Cascadia";
        src: url("https://excalidraw.com/Cascadia.woff2");
      }
      @font-face {
        font-family: "Assistant";
        src: url("https://excalidraw.com/Assistant-Regular.woff2");
      }
    </style>
    
  </defs>
  <rect x="0" y="0" width="882.6932220458978" height="752.141886393229" fill="#ffffff"></rect><g transform="translate(296.8026123046874 10) rotate(0 118.02596282958984 22.5)"><text x="0" y="31.536" font-family="Virgil, Segoe UI Emoji" font-size="36px" fill="#1e1e1e" text-anchor="start" style="white-space: pre;" direction="ltr" dominant-baseline="alphabetic">Ring Topology</text></g><g stroke-linecap="round" transform="translate(208.0123291015625 164.37020874023432) rotate(0 42.90362548828125 36.7713623046875)"><path d="M34.12 1.73 C40.99 0.17, 50.42 1.07, 57.74 3.15 C65.06 5.23, 73.33 9.02, 78.02 14.2 C82.72 19.39, 85.35 27.73, 85.92 34.27 C86.5 40.81, 85.04 47.72, 81.48 53.43 C77.91 59.15, 71.42 65.22, 64.53 68.56 C57.65 71.9, 48.12 73.8, 40.14 73.46 C32.16 73.12, 22.79 70.56, 16.65 66.52 C10.51 62.48, 5.79 55.38, 3.29 49.23 C0.8 43.08, 0.19 36.04, 1.69 29.63 C3.19 23.22, 6.31 15.67, 12.3 10.75 C18.29 5.84, 32.9 1.71, 37.62 0.12 C42.35 -1.47, 40.66 0.56, 40.67 1.22 M59.19 2.89 C66.31 4.54, 72.36 9.82, 76.65 15.26 C80.94 20.7, 84.53 28.95, 84.92 35.54 C85.32 42.13, 82.76 49.18, 79.03 54.82 C75.3 60.46, 69.34 66.25, 62.53 69.38 C55.71 72.51, 45.53 73.96, 38.15 73.58 C30.77 73.2, 24.35 71.16, 18.27 67.1 C12.19 63.03, 4.47 55.41, 1.68 49.19 C-1.11 42.97, -0.53 36.38, 1.53 29.76 C3.59 23.15, 8.71 14.2, 14.05 9.49 C19.4 4.79, 26.44 2.7, 33.59 1.56 C40.75 0.41, 53.03 2.25, 56.99 2.62 C60.96 3, 57.63 3.18, 57.38 3.81" stroke="#1e1e1e" stroke-width="1" fill="none"></path></g><g stroke-linecap="round" transform="translate(526.6830444335938 176.22940063476557) rotate(0 42.90362548828125 36.7713623046875)"><path d="M37.7 -0.17 C44.87 -1.48, 54.95 1.09, 61.83 3.99 C68.71 6.88, 75.12 11.36, 78.99 17.2 C82.87 23.04, 85.4 32.16, 85.1 39 C84.79 45.84, 81.38 52.87, 77.16 58.24 C72.94 63.61, 66.93 68.63, 59.77 71.23 C52.61 73.83, 41.77 75.22, 34.2 73.85 C26.63 72.47, 19.68 67.8, 14.34 62.96 C9 58.11, 4.32 50.92, 2.18 44.75 C0.03 38.59, -0.9 32.06, 1.48 25.94 C3.86 19.83, 10.01 12.49, 16.46 8.06 C22.92 3.62, 35.82 0.56, 40.2 -0.66 C44.58 -1.89, 42.55 0.04, 42.76 0.69 M38.99 0.27 C46.27 -0.76, 55.97 0.99, 63.05 4.14 C70.13 7.3, 77.44 13.45, 81.46 19.2 C85.47 24.96, 87.65 32.03, 87.14 38.67 C86.62 45.31, 82.98 53.83, 78.38 59.03 C73.79 64.24, 66.89 67.44, 59.59 69.9 C52.29 72.35, 42.2 74.9, 34.58 73.77 C26.96 72.63, 19.57 68.01, 13.88 63.11 C8.19 58.21, 2.31 50.76, 0.46 44.35 C-1.4 37.94, 0.22 30.89, 2.77 24.67 C5.31 18.45, 9.68 11.16, 15.75 7.01 C21.83 2.87, 35.03 1.05, 39.21 -0.19 C43.38 -1.43, 40.84 -1.21, 40.8 -0.43" stroke="#1e1e1e" stroke-width="1" fill="none"></path></g><g stroke-linecap="round" transform="translate(196.563232421875 594.0229797363279) rotate(0 42.90362548828125 36.7713623046875)"><path d="M25.98 2.66 C32.64 -0.23, 42.28 0.09, 49.96 1.33 C57.64 2.57, 66.36 5.68, 72.07 10.11 C77.78 14.53, 82.14 21.57, 84.22 27.88 C86.3 34.19, 86.82 41.61, 84.57 47.97 C82.31 54.32, 76.89 61.64, 70.7 66.02 C64.52 70.4, 55.34 73.7, 47.47 74.24 C39.61 74.77, 30.28 72.1, 23.5 69.22 C16.72 66.34, 10.67 62.39, 6.8 56.95 C2.93 51.5, 0.12 43.19, 0.28 36.52 C0.45 29.86, 3.21 22.64, 7.81 16.95 C12.42 11.26, 24 4.84, 27.9 2.36 C31.8 -0.12, 31.03 1.69, 31.19 2.08 M34.29 0.24 C41.54 -1.67, 50.71 0.76, 57.69 3.29 C64.67 5.83, 71.7 10.56, 76.15 15.46 C80.6 20.35, 83.39 26.29, 84.4 32.64 C85.4 39, 85.69 47.43, 82.18 53.59 C78.67 59.75, 70.46 66.47, 63.34 69.61 C56.23 72.76, 47.14 72.79, 39.5 72.46 C31.86 72.12, 23.55 71.26, 17.53 67.61 C11.52 63.97, 6.32 56.85, 3.4 50.58 C0.48 44.32, -1.41 36.64, 0.03 30 C1.46 23.37, 6.42 15.64, 12.02 10.77 C17.62 5.91, 30.28 2.19, 33.65 0.8 C37.02 -0.59, 32.26 1.9, 32.24 2.43" stroke="#1e1e1e" stroke-width="1" fill="none"></path></g><g stroke-linecap="round" transform="translate(517.0150756835936 602.0262451171873) rotate(0 42.90362548828125 39)"><path d="M25.74 3.23 C32.36 0.16, 43.18 -0.15, 50.97 1 C58.76 2.15, 66.8 5.34, 72.49 10.13 C78.19 14.92, 83.25 22.88, 85.15 29.74 C87.05 36.61, 86.22 44.86, 83.88 51.31 C81.55 57.76, 76.97 64.17, 71.13 68.43 C65.29 72.7, 56.82 75.9, 48.86 76.91 C40.9 77.92, 30.32 77.37, 23.37 74.47 C16.41 71.57, 10.93 65.48, 7.11 59.49 C3.3 53.5, 0.32 45.66, 0.49 38.51 C0.65 31.37, 3.52 22.61, 8.09 16.63 C12.67 10.64, 24.35 5.07, 27.93 2.59 C31.51 0.11, 29.53 1.23, 29.59 1.75 M25.87 3.16 C32.43 -0.18, 43.81 -1.2, 51.71 -0.19 C59.6 0.82, 67.95 4.07, 73.23 9.24 C78.5 14.41, 81.73 23.89, 83.38 30.83 C85.03 37.77, 85.27 44.57, 83.13 50.86 C80.98 57.16, 76.64 64.13, 70.52 68.61 C64.4 73.1, 54.02 76.8, 46.4 77.76 C38.78 78.72, 31.44 77.67, 24.8 74.38 C18.16 71.08, 10.58 64.16, 6.57 57.98 C2.55 51.81, 0.55 44.14, 0.7 37.31 C0.84 30.48, 3.14 22.95, 7.43 17.01 C11.72 11.07, 23.06 4.01, 26.43 1.65 C29.81 -0.7, 27.46 1.97, 27.67 2.88" stroke="#1e1e1e" stroke-width="1" fill="none"></path></g><g stroke-linecap="round" transform="translate(745.1444091796874 376.6406860351562) rotate(0 42.90362548828125 36.7713623046875)"><path d="M60.59 3.75 C67.6 5.81, 74.14 10.68, 78.29 15.92 C82.45 21.15, 85.35 28.47, 85.53 35.15 C85.7 41.83, 83.29 50.08, 79.34 55.99 C75.38 61.9, 68.77 67.81, 61.78 70.62 C54.79 73.42, 45.11 73.72, 37.41 72.81 C29.72 71.9, 21.46 69.41, 15.61 65.16 C9.75 60.91, 4.59 53.68, 2.28 47.33 C-0.02 40.99, -0.12 33.24, 1.77 27.1 C3.66 20.95, 7.8 15.07, 13.6 10.47 C19.39 5.87, 27.94 0.48, 36.55 -0.48 C45.15 -1.44, 59.76 3.12, 65.22 4.7 C70.68 6.28, 69.69 8.31, 69.3 8.98 M47.25 -0.61 C54.23 -0.87, 61.41 2.1, 67.12 6.13 C72.83 10.16, 78.41 17.03, 81.53 23.58 C84.66 30.13, 87.23 39.02, 85.85 45.45 C84.47 51.89, 78.76 57.73, 73.26 62.18 C67.76 66.64, 60.52 70.58, 52.84 72.2 C45.16 73.83, 34.64 73.97, 27.17 71.94 C19.7 69.91, 12.76 65.29, 8.03 60.03 C3.3 54.77, -0.59 47.36, -1.23 40.36 C-1.87 33.36, 0.07 24.17, 4.18 18.03 C8.28 11.9, 16.72 6.73, 23.41 3.56 C30.1 0.4, 40.52 -0.27, 44.34 -0.95 C48.15 -1.64, 46.11 -1.45, 46.3 -0.56" stroke="#1e1e1e" stroke-width="1" fill="none"></path></g><g stroke-linecap="round" transform="translate(10 363.7647094726562) rotate(0 42.90362548828125 36.7713623046875)"><path d="M59.35 2.04 C66.18 4.08, 73.39 10.54, 77.7 16.37 C82.01 22.2, 85.09 30.56, 85.21 37.04 C85.34 43.51, 82.49 49.76, 78.47 55.24 C74.46 60.72, 68.02 66.81, 61.14 69.91 C54.26 73.01, 44.88 74.62, 37.18 73.85 C29.49 73.07, 20.71 69.53, 14.96 65.26 C9.21 60.98, 4.83 54.43, 2.67 48.2 C0.51 41.98, 0 34.42, 1.99 27.91 C3.98 21.4, 8.94 13.75, 14.62 9.14 C20.31 4.53, 27.3 0.69, 36.09 0.25 C44.88 -0.18, 61.44 4.81, 67.37 6.53 C73.3 8.26, 72.19 10.21, 71.69 10.61 M40.62 -0.77 C47.93 -1.61, 57.46 2.02, 64.38 5.63 C71.3 9.24, 78.68 15.14, 82.17 20.89 C85.65 26.64, 86.08 33.46, 85.31 40.14 C84.53 46.82, 82.15 55.94, 77.52 60.97 C72.88 65.99, 64.88 68.27, 57.52 70.29 C50.15 72.31, 41.01 74.24, 33.32 73.1 C25.63 71.96, 16.87 68.56, 11.39 63.44 C5.91 58.32, 1.76 49.17, 0.44 42.38 C-0.87 35.58, 0.74 28.77, 3.48 22.67 C6.23 16.56, 10.83 9.45, 16.92 5.76 C23 2.07, 35.97 1.14, 40 0.53 C44.02 -0.07, 41.01 1.86, 41.09 2.14" stroke="#1e1e1e" stroke-width="1" fill="none"></path></g><g stroke-linecap="round"><g transform="translate(611.0322265624999 241.8748168945312) rotate(0 74.10498046875 68.34091186523438)"><path d="M1.06 0.82 C25.77 23.45, 124.75 113.62, 149.29 136.19 M0.16 0.21 C24.71 22.96, 124.33 114.61, 148.91 137.47" stroke="#1e1e1e" stroke-width="1" fill="none"></path></g></g><mask></mask><g stroke-linecap="round"><g transform="translate(296.7431640625 205.45022583007807) rotate(0 112.89498901367182 2.07794189453125)"><path d="M-0.97 0.62 C36.51 1.17, 187.4 2.68, 225.22 3.09 M0.72 -0.1 C37.97 0.57, 186.54 3.41, 223.98 4.06" stroke="#1e1e1e" stroke-width="1" fill="none"></path></g></g><mask></mask><g stroke-linecap="round"><g transform="translate(220.767578125 233.93667602539057) rotate(0 -64.32177734375 68.18376159667969)"><path d="M-1.03 -0.45 C-22.63 22.38, -107.06 114.78, -128.43 137.5 M0.63 -1.73 C-21.21 20.75, -107.44 112.86, -129.27 135.98" stroke="#1e1e1e" stroke-width="1" fill="none"></path></g></g><mask></mask><g stroke-linecap="round"><g transform="translate(74.00323486328125 440.39550781249994) rotate(0 64.74520874023438 81.61087036132807)"><path d="M0.86 1.05 C22.08 28.08, 106.73 135.75, 128.3 162.74 M-0.14 0.55 C21.33 27.71, 108.7 136.75, 130.39 164.02" stroke="#1e1e1e" stroke-width="1" fill="none"></path></g></g><mask></mask><g stroke-linecap="round"><g transform="translate(286.154541015625 631.0927124023435) rotate(0 114.49630737304682 4.5418701171875)"><path d="M0.56 0.36 C38.73 2.14, 190.1 8.61, 228.34 9.88 M-0.61 -0.5 C38.02 1.02, 192.32 6.64, 230.71 8.18" stroke="#1e1e1e" stroke-width="1" fill="none"></path></g></g><mask></mask><g stroke-linecap="round"><g transform="translate(612.0668945312499 623.2326049804685) rotate(0 82.13043212890625 -86.0807495117187)"><path d="M0.56 0.24 C28.24 -28.61, 138.15 -143.51, 165.31 -172.21 M-0.6 -0.68 C27.07 -29.4, 137.15 -142.38, 164.92 -170.7" stroke="#1e1e1e" stroke-width="1" fill="none"></path></g></g><mask></mask><g transform="translate(240.52893066406182 123.5989481608072) rotate(0 6.55999755859375 12.5)"><text x="0" y="17.52" font-family="Virgil, Segoe UI Emoji" font-size="20px" fill="#1e1e1e" text-anchor="start" style="white-space: pre;" direction="ltr" dominant-baseline="alphabetic">A</text></g><g transform="translate(562.0512695312493 717.141886393229) rotate(0 7.799995422363281 12.5)"><text x="0" y="17.52" font-family="Virgil, Segoe UI Emoji" font-size="20px" fill="#1e1e1e" text-anchor="start" style="white-space: pre;" direction="ltr" dominant-baseline="alphabetic">D</text></g><g transform="translate(564.2255859374993 120.66465250651038) rotate(0 7.269996643066406 12.5)"><text x="0" y="17.52" font-family="Virgil, Segoe UI Emoji" font-size="20px" fill="#1e1e1e" text-anchor="start" style="white-space: pre;" direction="ltr" dominant-baseline="alphabetic">B</text></g><g transform="translate(859.8132324218743 402.8088175455728) rotate(0 6.439994812011719 12.5)"><text x="0" y="17.52" font-family="Virgil, Segoe UI Emoji" font-size="20px" fill="#1e1e1e" text-anchor="start" style="white-space: pre;" direction="ltr" dominant-baseline="alphabetic">C</text></g></svg>