<svg version="1.1" xmlns="http://www.w3.org/2000/svg" viewBox="0 0 593.3371353010399 704.3487040201821" width="593.3371353010399" height="704.3487040201821" filter="invert(93%) hue-rotate(180deg)">
  <!-- svg-source:excalidraw -->
  
  <defs>
    <style class="style-fonts">
      @font-face {
        font-family: "Virgil";
        src: url("https://excalidraw.com/Virgil.woff2");
      }
      @font-face {
        font-family: "Cascadia";
        src: url("https://excalidraw.com/Cascadia.woff2");
      }
      @font-face {
        font-family: "Assistant";
        src: url("https://excalidraw.com/Assistant-Regular.woff2");
      }
    </style>
    
  </defs>
  <rect x="0" y="0" width="593.3371353010399" height="704.3487040201821" fill="#ffffff"></rect><g transform="translate(198.37236403723912 10) rotate(0 125.31597137451172 22.5)"><text x="0" y="31.536" font-family="Virgil, Segoe UI Emoji" font-size="36px" fill="#1e1e1e" text-anchor="start" style="white-space: pre;" direction="ltr" dominant-baseline="alphabetic">Star Topology</text></g><g stroke-linecap="round" transform="translate(247.0547981192698 122.79264322916663) rotate(0 56.941436767578125 45.7505187988281)"><path d="M22.88 0 C36.85 -0.6, 53.2 0.33, 91.01 0 M22.88 0 C47.03 0.35, 73.87 0.25, 91.01 0 M91.01 0 C105.67 -1.65, 114.68 5.9, 113.88 22.88 M91.01 0 C104.49 1.88, 114.35 5.78, 113.88 22.88 M113.88 22.88 C112.92 39.6, 112.21 56.28, 113.88 68.63 M113.88 22.88 C113.64 33.9, 113.92 43.79, 113.88 68.63 M113.88 68.63 C114.76 82.81, 104.59 92.81, 91.01 91.5 M113.88 68.63 C113.98 82.27, 107.92 93.59, 91.01 91.5 M91.01 91.5 C76.07 90.73, 63.48 93.15, 22.88 91.5 M91.01 91.5 C64.12 90.96, 35.93 91.76, 22.88 91.5 M22.88 91.5 C6 92.48, 1.69 82.9, 0 68.63 M22.88 91.5 C6.19 89.35, 2.25 84.59, 0 68.63 M0 68.63 C-0.78 53.74, -0.87 35.47, 0 22.88 M0 68.63 C-0.22 58.08, 0.16 49.04, 0 22.88 M0 22.88 C-0.23 8.09, 6.5 0.61, 22.88 0 M0 22.88 C2.14 6.95, 7.61 0.84, 22.88 0" stroke="#1e1e1e" stroke-width="1" fill="none"></path></g><g transform="translate(296.72623824378155 156.04316202799473) rotate(0 7.269996643066406 12.5)"><text x="7.269996643066406" y="17.52" font-family="Virgil, Segoe UI Emoji" font-size="20px" fill="#1e1e1e" text-anchor="middle" style="white-space: pre;" direction="ltr" dominant-baseline="alphabetic">B</text></g><g stroke-linecap="round" transform="translate(479.59314588414423 352.9784744077584) rotate(88.93338114982461 56.941436767578125 45.75051879882808)"><path d="M22.88 0 C48.74 -0.37, 74.27 0.55, 91.01 0 M22.88 0 C41.53 -0.5, 60.18 -1, 91.01 0 M91.01 0 C104.32 1.96, 114.84 8.78, 113.88 22.88 M91.01 0 C105.06 1.26, 113.89 6.82, 113.88 22.88 M113.88 22.88 C111.91 36.41, 114.4 51.51, 113.88 68.63 M113.88 22.88 C114.53 40.22, 113.66 55.93, 113.88 68.63 M113.88 68.63 C113.67 83.94, 107.24 93.03, 91.01 91.5 M113.88 68.63 C113.83 82.8, 105.07 91.76, 91.01 91.5 M91.01 91.5 C64.43 92.19, 39.89 91.71, 22.88 91.5 M91.01 91.5 C68.43 92.55, 44.02 91.73, 22.88 91.5 M22.88 91.5 C6.78 89.54, -1.33 84.13, 0 68.63 M22.88 91.5 C8.83 90.99, 0.77 83.63, 0 68.63 M0 68.63 C-0.14 57.39, 1.33 50.04, 0 22.88 M0 68.63 C1.42 56.24, 0.41 42.18, 0 22.88 M0 22.88 C-0.56 6.56, 8.03 -1.37, 22.88 0 M0 22.88 C-1.1 6.31, 7.12 2.27, 22.88 0" stroke="#1e1e1e" stroke-width="1" fill="none"></path></g><g stroke-linecap="round" transform="translate(251.35405349036355 602.8476664225259) rotate(0 56.941436767578125 45.7505187988281)"><path d="M22.88 0 C39.98 -1.77, 61.78 0.83, 91.01 0 M22.88 0 C46.96 -0.41, 72.75 -0.54, 91.01 0 M91.01 0 C104.86 0.91, 113.91 7.02, 113.88 22.88 M91.01 0 C107.95 -2.22, 115.05 7.13, 113.88 22.88 M113.88 22.88 C114.66 37.09, 113.75 46.34, 113.88 68.63 M113.88 22.88 C114.44 37.18, 114.51 51.93, 113.88 68.63 M113.88 68.63 C113.02 82.49, 104.28 89.51, 91.01 91.5 M113.88 68.63 C115.16 85.58, 107.43 90.06, 91.01 91.5 M91.01 91.5 C70.2 89.87, 53.36 90.49, 22.88 91.5 M91.01 91.5 C65.39 90.78, 38.14 91.34, 22.88 91.5 M22.88 91.5 C8.04 93.31, 0.2 84.73, 0 68.63 M22.88 91.5 C7.12 89.84, -0.12 85.57, 0 68.63 M0 68.63 C0.5 58.01, 0.72 47.68, 0 22.88 M0 68.63 C0.11 50.87, 0.26 32.9, 0 22.88 M0 22.88 C-1.53 9.28, 8.97 1, 22.88 0 M0 22.88 C-1.06 7.08, 7.77 -1.87, 22.88 0" stroke="#1e1e1e" stroke-width="1" fill="none"></path></g><g transform="translate(301.73549269934796 636.098185221354) rotate(0 6.55999755859375 12.5)"><text x="6.55999755859375" y="17.52" font-family="Virgil, Segoe UI Emoji" font-size="20px" fill="#1e1e1e" text-anchor="middle" style="white-space: pre;" direction="ltr" dominant-baseline="alphabetic">A</text></g><g stroke-linecap="round" transform="translate(-0.13888411826055602 366.04733329080955) rotate(88.93338114982461 56.941436767578125 45.75051879882808)"><path d="M22.88 0 C45.77 -0.83, 69.8 -0.32, 91.01 0 M22.88 0 C49.39 -0.48, 75.47 -0.73, 91.01 0 M91.01 0 C108.22 0.96, 115.03 6.58, 113.88 22.88 M91.01 0 C107.52 0.01, 113.08 7.71, 113.88 22.88 M113.88 22.88 C113.26 33.83, 114.46 44.37, 113.88 68.63 M113.88 22.88 C114.72 36.32, 113.59 50.1, 113.88 68.63 M113.88 68.63 C113.95 84.86, 107.78 91.45, 91.01 91.5 M113.88 68.63 C112.8 82.69, 106.52 93.32, 91.01 91.5 M91.01 91.5 C69.63 91.77, 47.19 92.06, 22.88 91.5 M91.01 91.5 C67.83 91.39, 43.28 91.52, 22.88 91.5 M22.88 91.5 C5.66 90.17, 0.25 84.92, 0 68.63 M22.88 91.5 C7.12 92.27, -0.25 82.05, 0 68.63 M0 68.63 C-1.47 57.46, 1.28 43.54, 0 22.88 M0 68.63 C0.82 59.26, -0.4 49.66, 0 22.88 M0 22.88 C-1.07 8.03, 6.26 -0.96, 22.88 0 M0 22.88 C-1.32 7.12, 9.9 2.22, 22.88 0" stroke="#1e1e1e" stroke-width="1" fill="none"></path></g><g stroke-linecap="round"><g transform="translate(302.2863044669261 218.54184977213532) rotate(0 0.83319091796875 45.16986083984375)"><path d="M-0.18 -0.87 C0.08 14.32, 1.94 75.23, 2.22 90.59 M-1.73 1.29 C-1.64 16.14, 1.17 73.9, 1.56 88.6" stroke="#1e1e1e" stroke-width="1" fill="none"></path></g></g><mask></mask><g stroke-linecap="round"><g transform="translate(440.85372376227383 353.53036348406283) rotate(88.93338114982461 0.83319091796875 45.16986083984375)"><path d="M-0.14 -0.56 C0.17 14.49, 1.6 74.81, 2.08 90.09 M-1.67 1.77 C-1.51 17.01, 0.64 76.92, 1.34 91.49" stroke="#1e1e1e" stroke-width="1" fill="none"></path></g></g><mask></mask><g stroke-linecap="round"><g transform="translate(302.7384529044261 496.50907389322896) rotate(0 0.83319091796875 45.16986083984375)"><path d="M0.73 -0.95 C0.69 14.02, 0.45 74.07, 0.69 89.16 M-0.35 1.17 C-0.11 16.29, 2.55 75.19, 2.88 90.08" stroke="#1e1e1e" stroke-width="1" fill="none"></path></g></g><mask></mask><g stroke-linecap="round"><g transform="translate(162.6884306657778 359.35195950970785) rotate(88.93338114982461 0.83319091796875 45.169860839843736)"><path d="M-0.56 0.41 C-0.29 15.67, 0.92 76.5, 1.41 91.42 M1.35 -0.42 C1.45 14.54, 0.21 74.63, 0.33 89.87" stroke="#1e1e1e" stroke-width="1" fill="none"></path></g></g><mask></mask><g stroke-linecap="round" transform="translate(208.0574836661448 324.8281656901041) rotate(0 96.57635498046875 75.38052368164062)"><path d="M137.25 6.56 C148.96 9.5, 159.61 17.77, 168.14 25.47 C176.67 33.18, 184.4 43.19, 188.43 52.79 C192.45 62.39, 193.87 72.82, 192.29 83.08 C190.71 93.34, 185.51 105.39, 178.96 114.36 C172.4 123.33, 163.47 130.95, 152.95 136.9 C142.44 142.84, 128.75 148.06, 115.86 150.01 C102.97 151.96, 88.33 151.04, 75.61 148.6 C62.88 146.16, 49.91 141.35, 39.51 135.39 C29.11 129.43, 19.84 121.64, 13.18 112.83 C6.53 104.02, 1.06 92.93, -0.42 82.54 C-1.89 72.15, 0.02 60.25, 4.33 50.51 C8.65 40.76, 16.58 31.34, 25.49 24.06 C34.4 16.78, 45.81 10.87, 57.8 6.82 C69.8 2.77, 83.62 -0.42, 97.46 -0.24 C111.31 -0.06, 133.18 6.09, 140.88 7.91 C148.58 9.72, 144.54 9.61, 143.65 10.66 M128.53 3.9 C140.74 6.1, 153.85 13.05, 163.34 20.24 C172.82 27.42, 180.26 37.7, 185.43 46.99 C190.61 56.27, 194.78 65.74, 194.37 75.96 C193.97 86.18, 188.98 99.03, 183 108.29 C177.02 117.56, 168.34 124.97, 158.49 131.57 C148.64 138.17, 135.93 144.69, 123.89 147.91 C111.84 151.13, 99.15 152.01, 86.2 150.9 C73.25 149.79, 57.56 146.73, 46.17 141.26 C34.79 135.8, 25.51 126.51, 17.88 118.1 C10.25 109.69, 2.75 100.88, 0.41 90.78 C-1.93 80.68, 0.81 67.86, 3.82 57.49 C6.83 47.12, 10.62 36.36, 18.45 28.57 C26.28 20.78, 39.24 15.42, 50.78 10.73 C62.33 6.05, 74.97 1.49, 87.74 0.45 C100.51 -0.59, 120.87 3.87, 127.41 4.47 C133.95 5.08, 127.49 2.78, 126.98 4.07" stroke="#1971c2" stroke-width="4" fill="none"></path></g></svg>