<svg version="1.1" xmlns="http://www.w3.org/2000/svg" viewBox="0 0 947.5430273428838 688.2053075894695" width="947.5430273428838" height="688.2053075894695" filter="invert(93%) hue-rotate(180deg)">
  <!-- svg-source:excalidraw -->
  
  <defs>
    <style class="style-fonts">
      @font-face {
        font-family: "Virgil";
        src: url("https://excalidraw.com/Virgil.woff2");
      }
      @font-face {
        font-family: "Cascadia";
        src: url("https://excalidraw.com/Cascadia.woff2");
      }
      @font-face {
        font-family: "Assistant";
        src: url("https://excalidraw.com/Assistant-Regular.woff2");
      }
    </style>
    
  </defs>
  <rect x="0" y="0" width="947.5430273428838" height="688.2053075894695" fill="#ffffff"></rect><g stroke-linecap="round"><g transform="translate(10.494372910289087 342.3788452148437) rotate(0 463.4236755371093 -2.05670166015625)"><path d="M0.63 0.24 C155 -0.6, 772.51 -3.92, 927.05 -4.6 M-0.49 -0.67 C153.66 -1.4, 771.53 -3.03, 926.21 -3.32" stroke="#1e1e1e" stroke-width="1" fill="none"></path></g></g><mask></mask><g stroke-linecap="round"><g transform="translate(102.59239537122659 260.5407409667968) rotate(0 0 34.045196533203125)"><path d="M-0.14 1.08 C-0.35 12.18, -0.19 55.69, -0.28 67.06 M-1.67 0.6 C-2.15 11.78, -1.35 56.89, -1.37 68.05" stroke="#1e1e1e" stroke-width="1" fill="none"></path></g></g><mask></mask><g stroke-linecap="round"><g transform="translate(417.929187363414 267.98181152343744) rotate(0 0 34.045196533203125)"><path d="M0.53 -0.78 C0.69 10.57, 0.21 57.26, 0.06 68.56 M-0.65 1.42 C-0.57 12.37, -0.74 55.62, -0.86 66.68" stroke="#1e1e1e" stroke-width="1" fill="none"></path></g></g><mask></mask><g stroke-linecap="round"><g transform="translate(818.488025254039 260.56179809570307) rotate(0 0 34.045196533203125)"><path d="M0.01 1.03 C0.22 12.43, 1.12 56.05, 1.11 67.25 M-1.44 0.53 C-1.28 12.16, 0.65 56.82, 0.75 68.35" stroke="#1e1e1e" stroke-width="1" fill="none"></path></g></g><mask></mask><g stroke-linecap="round"><g transform="translate(614.8832994046727 356.49564108630096) rotate(179.06882358606038 0 34.045196533203125)"><path d="M-0.43 1.01 C-0.5 12.51, -0.44 58.03, -0.17 69.28 M1.54 0.5 C1.29 11.66, -1.12 56.8, -1.21 67.78" stroke="#1e1e1e" stroke-width="1" fill="none"></path></g></g><mask></mask><g stroke-linecap="round"><g transform="translate(257.58349471717264 358.3533681370822) rotate(179.06882358606038 0 34.045196533203125)"><path d="M-0.28 -0.32 C-0.23 11.07, 0.6 57.08, 0.58 68.58 M1.78 -1.53 C1.69 9.48, 0.47 55.35, -0.06 66.72" stroke="#1e1e1e" stroke-width="1" fill="none"></path></g></g><mask></mask><g stroke-linecap="round" transform="translate(67.62187535169534 199.14230346679688) rotate(0 36.69659423828125 28.24961853027341)"><path d="M28.61 1.3 C35.3 -0.26, 46.07 0.27, 52.62 2.56 C59.18 4.84, 64.36 10.19, 67.91 15.02 C71.46 19.86, 74.62 26.32, 73.93 31.58 C73.24 36.85, 68.63 42.44, 63.76 46.61 C58.9 50.79, 51.88 55.28, 44.72 56.62 C37.57 57.96, 27.31 57.14, 20.83 54.68 C14.35 52.21, 9.34 46.78, 5.85 41.83 C2.35 36.87, -0.61 30.38, -0.14 24.93 C0.34 19.47, 3.22 13.1, 8.69 9.08 C14.16 5.06, 28.02 2.3, 32.67 0.82 C37.33 -0.66, 36.45 -0.25, 36.62 0.22 M21.59 0.95 C27.45 -1.72, 36.45 -1.7, 43.71 -0.47 C50.97 0.75, 60.23 3.78, 65.16 8.29 C70.09 12.8, 72.92 20.67, 73.31 26.57 C73.69 32.47, 71.11 39.26, 67.47 43.67 C63.84 48.07, 57.71 51.21, 51.48 53 C45.24 54.79, 37.04 55.46, 30.08 54.39 C23.11 53.32, 14.49 50.6, 9.69 46.58 C4.89 42.55, 1.95 35.92, 1.28 30.26 C0.62 24.61, 2.33 17.38, 5.72 12.64 C9.1 7.91, 19.07 3.38, 21.6 1.87 C24.14 0.35, 20.78 2.8, 20.93 3.55" stroke="#1971c2" stroke-width="4" fill="none"></path></g><g stroke-linecap="round" transform="translate(382.9586673438827 206.7476806640625) rotate(0 36.69659423828125 28.24961853027341)"><path d="M43.29 1.42 C50.26 2.33, 59.43 5.99, 64.26 9.74 C69.08 13.5, 71.51 18.59, 72.25 23.94 C72.98 29.29, 72.13 36.83, 68.66 41.84 C65.19 46.85, 57.79 51.63, 51.42 54.02 C45.04 56.42, 37.44 57.41, 30.4 56.22 C23.36 55.03, 14.27 51.02, 9.18 46.88 C4.09 42.75, 0.68 36.77, -0.13 31.41 C-0.94 26.06, 0.81 19.49, 4.31 14.75 C7.81 10.01, 13.82 5.21, 20.87 2.96 C27.93 0.71, 41.56 1.35, 46.64 1.27 C51.72 1.2, 51.32 2.01, 51.35 2.51 M52.64 1.37 C58.96 2.82, 64.79 8.13, 68.36 12.93 C71.92 17.72, 74.59 24.57, 74.02 30.15 C73.44 35.72, 69.93 41.91, 64.91 46.39 C59.89 50.87, 50.9 55.94, 43.9 57.05 C36.91 58.16, 29.43 55.34, 22.92 53.05 C16.41 50.76, 8.48 48.04, 4.85 43.32 C1.21 38.59, 0.58 30.18, 1.1 24.69 C1.62 19.2, 3.2 14.39, 7.97 10.4 C12.73 6.41, 22.24 2.16, 29.71 0.77 C37.17 -0.62, 48.99 1.81, 52.75 2.06 C56.5 2.3, 52.89 1.89, 52.22 2.23" stroke="#1971c2" stroke-width="4" fill="none"></path></g><g stroke-linecap="round" transform="translate(783.5175052345078 199.32623291015625) rotate(0 36.69659423828125 28.24961853027341)"><path d="M23.81 2.21 C30.03 0.18, 39.45 0.65, 46.58 2 C53.7 3.34, 61.96 6.1, 66.56 10.3 C71.15 14.49, 74.12 21.56, 74.15 27.16 C74.18 32.77, 70.81 39.17, 66.72 43.92 C62.64 48.67, 56.22 53.67, 49.62 55.67 C43.03 57.66, 34.12 57.48, 27.14 55.89 C20.17 54.3, 12.16 50.41, 7.78 46.12 C3.39 41.82, 1.2 35.7, 0.81 30.14 C0.42 24.58, -0.09 17.81, 5.43 12.74 C10.95 7.67, 27.41 1.49, 33.91 -0.27 C40.41 -2.03, 44.41 1.58, 44.45 2.16 M45.12 1.04 C51.7 2.15, 59.09 6.85, 63.77 11.09 C68.46 15.33, 72.51 21.06, 73.24 26.49 C73.96 31.91, 71.88 39.04, 68.12 43.64 C64.37 48.24, 57.52 52.07, 50.71 54.08 C43.91 56.09, 34.29 57.18, 27.32 55.69 C20.34 54.2, 13.62 49.45, 8.87 45.15 C4.12 40.85, -0.62 35.5, -1.17 29.9 C-1.72 24.29, 1.48 16.29, 5.58 11.5 C9.68 6.71, 16.75 2.74, 23.43 1.15 C30.12 -0.44, 42.06 1.95, 45.68 1.97 C49.29 2, 45.14 0.95, 45.11 1.3" stroke="#1971c2" stroke-width="4" fill="none"></path></g><g stroke-linecap="round" transform="translate(578.0634710028498 431.3515906644181) rotate(179.06882358606038 36.69659423828125 28.24961853027341)"><path d="M54.79 2.91 C60.86 5.02, 66.78 10.97, 69.74 16.07 C72.71 21.17, 73.73 27.93, 72.57 33.51 C71.41 39.08, 68.03 45.83, 62.77 49.51 C57.52 53.2, 48.21 55.09, 41.06 55.62 C33.91 56.16, 25.96 55.32, 19.88 52.73 C13.8 50.14, 7.85 45.09, 4.58 40.08 C1.31 35.07, -0.91 28.13, 0.27 22.66 C1.45 17.19, 6.25 11.07, 11.67 7.25 C17.09 3.44, 24.87 0.13, 32.78 -0.23 C40.69 -0.58, 54.15 3.5, 59.13 5.13 C64.11 6.76, 63.19 9.02, 62.66 9.55 M22.55 3.93 C28.41 1.45, 37.04 0.42, 43.82 1.38 C50.6 2.33, 58.2 5.94, 63.24 9.67 C68.29 13.4, 73.18 18.45, 74.1 23.75 C75.01 29.04, 72.45 36.4, 68.72 41.45 C64.99 46.49, 58.15 51.79, 51.72 54.01 C45.28 56.22, 36.94 55.91, 30.11 54.75 C23.29 53.58, 15.81 50.69, 10.78 47.01 C5.75 43.32, 0.71 38.14, -0.07 32.62 C-0.86 27.1, 2.66 18.76, 6.07 13.9 C9.48 9.04, 17.73 5.19, 20.38 3.48 C23.04 1.78, 21.5 3.27, 22.01 3.68" stroke="#1971c2" stroke-width="4" fill="none"></path></g><g stroke-linecap="round" transform="translate(220.76214043644353 433.2093787503556) rotate(179.06882358606038 36.69659423828125 28.24961853027341)"><path d="M44.65 1.35 C51.54 2.03, 59.29 5.53, 64.12 9.62 C68.94 13.71, 72.73 20.56, 73.59 25.9 C74.45 31.24, 73.02 36.99, 69.28 41.65 C65.53 46.31, 57.96 51.57, 51.13 53.88 C44.3 56.19, 35.35 56.67, 28.31 55.53 C21.26 54.39, 13.49 51.21, 8.86 47.04 C4.24 42.88, 1.35 35.97, 0.56 30.53 C-0.23 25.09, 0.55 19.01, 4.13 14.39 C7.72 9.77, 14.63 4.81, 22.06 2.83 C29.5 0.84, 43.32 2.38, 48.73 2.47 C54.15 2.56, 54.64 3.18, 54.54 3.37 M29.68 -0.61 C36.23 -1.78, 46.36 -0.66, 52.84 2.18 C59.32 5.02, 65.05 11.19, 68.57 16.43 C72.09 21.67, 75.03 28.56, 73.97 33.6 C72.92 38.64, 67.24 42.96, 62.26 46.66 C57.29 50.37, 51.33 54.77, 44.15 55.82 C36.97 56.87, 25.6 55.43, 19.2 52.99 C12.79 50.54, 8.69 45.78, 5.7 41.16 C2.71 36.53, 0.51 30.85, 1.25 25.24 C1.99 19.63, 5.24 11.67, 10.14 7.48 C15.03 3.3, 27.17 1.3, 30.61 0.13 C34.06 -1.04, 30.74 0.08, 30.81 0.46" stroke="#1971c2" stroke-width="4" fill="none"></path></g><g transform="translate(281.7648196876327 10) rotate(0 126.3599624633789 22.5)"><text x="0" y="31.536" font-family="Virgil, Segoe UI Emoji" font-size="36px" fill="#1e1e1e" text-anchor="start" style="white-space: pre;" direction="ltr" dominant-baseline="alphabetic">Tree Topology</text></g><g stroke-linecap="round"><g transform="translate(225.08269078138215 481.9061075846353) rotate(0 -26.379150390625 33.806182861328125)"><path d="M1.19 0.91 C-7.46 12.16, -43.33 57.09, -52.44 68.15 M0.36 0.35 C-8.38 11.18, -44.66 54.96, -53.22 66.31" stroke="#1e1e1e" stroke-width="1" fill="none"></path></g></g><mask></mask><g stroke-linecap="round"><g transform="translate(261.6983524024759 495.6778971354166) rotate(0 1.0032958984375 32.84448242187494)"><path d="M0.93 -0.2 C1.14 10.8, 0.9 54.41, 1.03 65.39 M-0.04 -1.35 C0.55 9.88, 3.1 55.38, 3.23 66.77" stroke="#1e1e1e" stroke-width="1" fill="none"></path></g></g><mask></mask><g stroke-linecap="round"><g transform="translate(290.73173863294465 482.9651285807291) rotate(0 39.94500732421875 38.68896484374994)"><path d="M-1.12 -0.33 C12.11 12.34, 67.18 63.67, 80.5 76.62 M0.49 -1.56 C13.52 11.21, 66.43 64.39, 79.87 77.75" stroke="#1e1e1e" stroke-width="1" fill="none"></path></g></g><mask></mask><g stroke-linecap="round" transform="translate(102.32341343763215 575.2818400065103) rotate(90.58554054935597 55.8106689453125 38.870819091796875)"><path d="M19.44 0 C37.39 0.28, 56.91 -1.9, 92.19 0 M19.44 0 C47.45 1.26, 75.26 0.95, 92.19 0 M92.19 0 C104.33 -0.82, 112.13 5.93, 111.62 19.44 M92.19 0 C105.38 1.3, 113.19 7.19, 111.62 19.44 M111.62 19.44 C111.87 28.21, 111.49 40.2, 111.62 58.31 M111.62 19.44 C111.82 32.94, 111.16 45.96, 111.62 58.31 M111.62 58.31 C111.05 71.12, 104.12 77.53, 92.19 77.74 M111.62 58.31 C113.85 71.35, 107.13 76.77, 92.19 77.74 M92.19 77.74 C65.61 79.14, 42 77.79, 19.44 77.74 M92.19 77.74 C68.58 76.44, 44.62 77.88, 19.44 77.74 M19.44 77.74 C5.6 76.77, -0.98 72.24, 0 58.31 M19.44 77.74 C8.58 77.65, 1.18 69.62, 0 58.31 M0 58.31 C-0.45 45.54, 1.05 30.84, 0 19.44 M0 58.31 C0.31 44.69, -0.14 30.2, 0 19.44 M0 19.44 C0.91 4.86, 4.92 -1.05, 19.44 0 M0 19.44 C0.06 5.98, 7.72 1.73, 19.44 0" stroke="#1e1e1e" stroke-width="1" fill="none"></path></g><g stroke-linecap="round" transform="translate(210.0805545509134 581.4178263346353) rotate(90.58554054935597 55.8106689453125 38.870819091796875)"><path d="M19.44 0 C41.13 1.52, 60.01 -1.21, 92.19 0 M19.44 0 C45.59 0.44, 71.87 -0.62, 92.19 0 M92.19 0 C103.34 -1.79, 110.91 7.47, 111.62 19.44 M92.19 0 C105.7 -2.15, 110.79 6.5, 111.62 19.44 M111.62 19.44 C111.34 31, 109.53 40.62, 111.62 58.31 M111.62 19.44 C112.45 33.28, 111.18 47.28, 111.62 58.31 M111.62 58.31 C111.71 70.18, 105.65 79.39, 92.19 77.74 M111.62 58.31 C112.42 73.05, 107.33 76.4, 92.19 77.74 M92.19 77.74 C76.71 75.64, 59.34 75.65, 19.44 77.74 M92.19 77.74 C70.16 77.82, 45.9 76.32, 19.44 77.74 M19.44 77.74 C6.43 78.43, 1.97 72.68, 0 58.31 M19.44 77.74 C6.87 76.67, -1.91 72.92, 0 58.31 M0 58.31 C0.04 46.99, 0.15 39.64, 0 19.44 M0 58.31 C-0.65 46, -0.53 35.73, 0 19.44 M0 19.44 C1.11 5.26, 7.47 -1.79, 19.44 0 M0 19.44 C-0.63 4.77, 6.6 0.92, 19.44 0" stroke="#1e1e1e" stroke-width="1" fill="none"></path></g><g stroke-linecap="round" transform="translate(318.6234012306009 583.1294962565103) rotate(90.58554054935597 55.8106689453125 38.870819091796875)"><path d="M19.44 0 C42.36 2.3, 66.67 1.01, 92.19 0 M19.44 0 C40.43 0.55, 62.28 0.75, 92.19 0 M92.19 0 C105.84 0.31, 111.7 5.58, 111.62 19.44 M92.19 0 C106.93 1.73, 111.64 5.15, 111.62 19.44 M111.62 19.44 C112.87 30.83, 110.49 45.62, 111.62 58.31 M111.62 19.44 C112.22 34.02, 112.7 47.53, 111.62 58.31 M111.62 58.31 C111.54 70.68, 104.97 77.61, 92.19 77.74 M111.62 58.31 C109.49 73.4, 104.66 76.89, 92.19 77.74 M92.19 77.74 C67.12 78.71, 44.99 79.11, 19.44 77.74 M92.19 77.74 C63.77 78.32, 35.32 78.46, 19.44 77.74 M19.44 77.74 C7.53 79.4, 0.05 69.72, 0 58.31 M19.44 77.74 C4.98 79.94, 1.48 69.76, 0 58.31 M0 58.31 C-0.2 45.79, -1.03 29.68, 0 19.44 M0 58.31 C-0.14 42.68, -0.29 28.7, 0 19.44 M0 19.44 C0.88 5.32, 6.63 1.42, 19.44 0 M0 19.44 C0.6 6.12, 6.04 -0.72, 19.44 0" stroke="#1e1e1e" stroke-width="1" fill="none"></path></g></svg>